<?xml version="1.0" encoding="UTF-8"?>
<!DOCTYPE svg PUBLIC "-//W3C//DTD SVG 1.1//EN" "http://www.w3.org/Graphics/SVG/1.1/DTD/svg11.dtd">
<svg xmlns="http://www.w3.org/2000/svg" version="1.1" width="1000px" height="1000px" style="shape-rendering:geometricPrecision; text-rendering:geometricPrecision; image-rendering:optimizeQuality; fill-rule:evenodd; clip-rule:evenodd" xmlns:xlink="http://www.w3.org/1999/xlink">
<rect x="0" y="0" width="1000" height="1000" fill="#ffffff"/>
<g><path fill="#ffffff" stroke="#ffffff" stroke-width="0.5" d="M 0,0 c 333.33,0 666.67,0 1000,0 c 0,333.33 0,666.67 0,1000 c -333.33,0 -666.67,0 -1000,0 c 0,-333.33 0,-666.67 0,-1000 Z M 500.84,66.85 c -7.59,12.1 -15.36,24.1 -23.31,35.97 c -0.22,0.34 -0.44,0.69 -0.65,1.03 c -3.23,5.1 -6.51,10.16 -9.86,15.18 c -2.25,5.04 -10.11,13.32 -10.2,18.46 c -0.13,35.12 4.79,69.84 4.48,105.01 c 5.08,77.9 2.66,156.1 -7.13,233.47 c -1.44,4.06 -0.24,19.13 -4.07,20.92 c -0.58,0.15 -0.96,0.51 -1.17,1.07 c -27.18,20.25 -67.19,21.32 -92.7,-2.18 c -0.33,-0.35 -0.66,-0.69 -1,-1.03 c -5.64,-7.14 -8.05,-12.94 -10.19,-21.74 c -2.41,-12.31 -1.45,-26.1 0.18,-38.48 c 1.42,-7.04 3.06,-14.04 4.89,-20.99 c 3.3,-10.96 7.08,-21.74 11.35,-32.36 c 13.7,-32.46 30.84,-61.62 50.37,-90.85 c 0.77,-1.67 -1.25,-1.52 -2.17,-1.14 c -6.98,1.93 -13.84,4.21 -20.59,6.84 c -0.49,0.14 -0.89,0.41 -1.19,0.81 c -30.27,11.01 -64.85,35.36 -87.82,58.12 c -0.48,0.25 -0.85,0.61 -1.11,1.08 c -20.54,21.02 -36.18,43.18 -50.23,68.9 c -0.35,0.25 -0.56,0.59 -0.63,1.02 c -0.47,1.03 -0.92,2.07 -1.35,3.12 c -0.31,0.23 -0.49,0.54 -0.53,0.93 c -0.48,0.96 -0.95,1.93 -1.41,2.9 c -0.44,0.23 -0.64,0.61 -0.6,1.13 c -0.41,0.98 -0.89,1.92 -1.43,2.83 c -0.38,0.27 -0.61,0.64 -0.68,1.11 c -3.3,8.17 -7.77,17.45 -10.91,25.67 c -8.11,23.17 -14.61,44.54 -17.86,69.02 c -7.18,46.86 3.31,98.63 23.21,141.31 c 9.91,20.11 20.64,37.51 34.32,55.18 c 0.27,0.4 0.56,0.76 0.89,1.11 c 2.66,3.32 5.35,6.63 8.06,9.91 c 0.29,0.39 0.59,0.76 0.91,1.13 c 10.37,11.3 21.36,21.96 32.97,31.98 c 0.36,0.32 0.75,0.6 1.16,0.85 c 9.65,7.62 19.55,14.84 29.95,21.41 c 0.34,0.2 0.69,0.4 1.04,0.59 c 1.98,1.16 3.97,2.32 5.95,3.49 c 0.35,0.17 0.7,0.33 1.05,0.5 c 3.26,1.94 6.56,3.79 9.92,5.54 c 0.37,0.16 0.74,0.33 1.11,0.5 c 12.07,6.27 23.9,11.26 36.68,15.72 c 40.5,14.32 77.13,17.48 119.92,15.31 c 6.02,-0.39 12.44,-3.08 18.38,-2.45 c 1.23,-0.18 2.44,-0.45 3.63,-0.83 c 0.77,-0.26 3.35,0.48 3.61,-0.59 c 57.69,-13.02 105.92,-39.46 146.09,-83.11 c 7.21,-7.54 13.9,-15.52 20.06,-23.94 c 44.24,-59.45 66.69,-129.9 54.57,-204.08 c 0.25,-0.87 0.1,-1.63 -0.46,-2.27 c -1.4,-9.81 -3.83,-19.36 -6.56,-28.87 c 0.08,-0.51 -0.1,-0.89 -0.53,-1.14 c -2.59,-13.11 -10.66,-30.97 -15.56,-43.99 c -27.42,-58.27 -65.92,-103.72 -122.15,-135.98 c -17.07,-8.49 -32.88,-16.3 -51.56,-20.77 c -0.67,-0.27 -2.07,-0.28 -1.82,0.83 c 23.14,34.04 42.78,73.66 57.69,112.06 c 1.59,6.03 4.92,13.86 6.18,19.88 c -0.14,1.18 0.12,2.25 0.77,3.22 c 4.04,10.77 5.97,31.44 3.92,43.17 c -1.84,6.52 -3.61,12.26 -6.94,18.43 c -3.07,5.2 -7.01,9.63 -11.8,13.31 c -0.51,0.09 -0.89,0.37 -1.14,0.84 c -29.94,20.72 -59.72,14.94 -87.93,-5.07 c -0.21,-2.73 0.4,-4.82 -1.56,-7.04 c -6.3,-42.29 -8.71,-84.71 -12.15,-127.31 c -3.81,-72.15 -6.01,-144.37 -9.12,-216.54 c -0.81,-12.64 -1.21,-25.29 -1.18,-37.96 c -0.73,-13.32 -1.26,-26.65 -1.57,-39.98 c -0.24,-4.74 -1.11,-2.58 -2.49,-0.17 Z M 673.93,504.92 c -1.68,1.12 -0.7,9.51 -0.94,11.61 c -0.04,0.67 0.21,1.19 0.73,1.57 c 2.5,21.91 9.46,38.61 21.99,56.56 c 1.28,1.33 8.41,10.35 9.27,10.39 c 0.33,0.82 0.76,0.85 1.3,0.08 c 0.91,-0.48 2.03,-10 1.45,-11.49 c -3.75,-30.13 -22.72,-55.11 10.33,-75.86 c 0.4,0.05 0.78,0.15 1.15,0.32 c 0.31,0.03 0.51,0.19 0.61,0.51 c 5.95,20.3 8.54,41.79 9.41,62.89 c 0.24,7.06 -2.96,42.59 -6.61,47.17 c -5.78,5.56 -47.36,8.05 -57.12,9.59 c -50.49,3.51 -98.68,-1.06 -148.16,-11.01 c -16.24,-2.35 -32.48,-5.27 -48.87,-6.97 c -24.11,-1.9 -46.83,-2.05 -70.94,-0.01 c -14.96,2.09 -29.32,3.99 -44.06,7.62 c -26.88,7.42 -49.21,16.52 -71.9,33.2 c -3.74,2.49 -4.2,1.89 -6.55,-1.61 c -14.37,-27.03 -18.25,-51.83 -16.71,-82.24 c 0.75,-1.08 0.85,-2.26 0.3,-3.53 c 0.28,-8.99 1.65,-16.92 3.68,-25.7 c 0.4,-0.25 0.54,-0.61 0.42,-1.08 c 1.71,-7.47 10.65,-42.93 15.68,-46.43 c 2.35,4.18 4.76,8.35 7.23,12.52 c 7.79,11.48 15.4,23.26 25.13,33.21 c 10.17,10.8 23.75,21.71 37.19,28.04 c 49.66,23.89 97.88,0.18 138.07,-29.93 c 2.68,-1.91 4.17,-1.41 6.7,0.27 c 11.48,8.59 23.6,16.18 36.34,22.77 c 38.55,19.7 87.08,29.15 114.35,-13.35 c 23.9,-39.2 27.27,-80.7 27.32,-125.61 c 0.07,-1.98 1.91,-1.25 2.93,-0.6 c 10.11,5.48 14.75,11.03 20.67,20.47 c 0.76,2.19 1.75,4.26 2.95,6.22 c -3.05,6.42 -6.05,12.89 -8.98,19.4 c -7.3,16.65 -12.6,32.82 -14.36,51.01 Z M 183.76,577.41 c -6.11,0.37 -12.2,0.9 -18.29,1.58 c -1.75,0.02 -3.19,0.67 -4.3,1.97 c 0.41,0.58 0.9,1.06 1.5,1.44 c 3.13,1.17 10.82,-1.8 11.04,3.21 c 0.76,3.75 0.86,10.56 3.42,13.42 c 0.59,-1.64 1.03,-3.33 1.29,-5.07 c 0.17,-2.22 -0.67,-9.42 0.08,-11.01 c 2.53,-1.47 5.25,-2.02 8.17,-1.65 c 0.27,6.05 0.73,12.08 1.38,18.08 c 0.97,1.48 3.11,1.18 3.16,-0.84 c -0.04,-2.63 -0.74,-20.15 -2.04,-21.17 c -1.8,-0.11 -3.6,-0.1 -5.41,0.04 Z M 791.61,593 c 0.6,7.86 10.12,11.03 14.38,4.43 c 2.05,-2.35 4.45,-17.21 9.42,-14.3 c 5.63,4.96 3.98,13.68 -2.8,16.93 c -0.32,0.83 -0.57,1.66 -0.75,2.51 c -0.25,-0.16 -0.25,-0.29 -0.03,-0.4 c 7.28,5.87 17.13,-15.74 5.13,-22.61 c -14.77,-4.88 -11.38,21.53 -19.84,16.68 c -4.08,-5.25 -0.71,-10.08 3.13,-14.08 c 0.27,-0.89 0.35,-1.8 0.26,-2.73 c -7.7,0.33 -8.47,7.33 -8.9,13.57 Z M 164.07,617 c 1.14,18.23 23.4,20.44 30.23,4.94 c 5.48,-23.29 -28.2,-27.23 -30.23,-4.94 Z M 792.24,625.28 c -3.02,-1.68 -7.27,-1.44 -6.2,3.12 c 1.15,0.89 2.42,1.55 3.81,2 c 4.01,0.89 8.06,1.59 12.13,2.1 c 16.91,2.81 22.07,-19.76 8.83,-23.92 c -2.73,-0.55 -20.51,-4.61 -20.67,-1.28 c 5.13,8.2 23.87,0.1 23.78,13.18 c 1.09,11.68 -15.57,6.89 -21.68,4.8 Z M 167.98,616 c 2.63,-11.2 20.27,-13.01 22.59,-1.31 c 2.94,15.19 -21.71,18.04 -22.59,1.31 Z M 169.86,641.3 c 1.95,3.09 10.96,-1.9 12.74,0.63 c 5.4,10.99 -8.57,14.57 -5.78,20.88 c 3.07,-0.15 7.79,-8.44 10.4,-7.16 c 3.93,2.54 12.58,3.63 13.95,-2.25 c 0.27,-4.74 -0.49,-18.43 -4.12,-21.73 c -3.42,-0.55 -18.76,5.36 -23.06,6.77 c -1.65,0.72 -3.53,1.3 -4.13,2.86 Z M 304.36,699 c 1.89,-7.16 9.21,-16.42 14.78,-21.38 c 49.45,-43.4 144.38,-20.72 204.35,-16.57 c 63.17,2.43 137.35,0.54 194.49,-29.62 c 0.63,-0.26 1.17,-0.16 1.63,0.31 c -0.43,4.19 -3.24,8.68 -4.52,12.79 c -7.56,17.77 -16.41,32.9 -27.33,48.83 c -14.8,21.1 -30.98,36.96 -50.59,53.31 c -4.87,3.36 -9.62,6.89 -14.24,10.59 c -3.85,2.03 -7.5,4.39 -10.93,7.1 c -45.1,25.83 -91.95,37.54 -143.98,30.09 c -53.98,-9.43 -92.89,-29.47 -134.42,-64.56 c -7.78,-6.73 -24.08,-23.09 -29.24,-30.89 Z M 779.04,653.98 c 6.72,3.46 18.31,6.15 25.93,8.35 c 1.44,0.15 2.31,-0.51 2.61,-1.99 c 1.28,-4.56 -11.88,-2.69 -11.01,-6.66 c 2.04,-8.48 4.86,-20.45 -8.56,-19.09 c -6.59,0.82 -7.63,14.36 -8.97,19.39 Z M 186.98,642 c 0.38,-3.24 2.2,-4.63 5.44,-4.17 c 5.02,1.77 8.92,18.33 1.22,15.88 c -5.29,-1.09 -5.44,-7.48 -6.66,-11.71 Z M 783.37,650.88 c 0.3,-4.77 5.78,-17.8 11.11,-9.04 c 0.39,3.54 -0.55,7.69 -2.31,10.8 c -2.1,0.19 -4.2,0.1 -6.3,-0.25 c -0.72,-0.25 -2.52,-0.46 -2.5,-1.51 Z M 180.65,675 c -0.1,5 1.82,9 5.75,12.02 c 8.68,5.42 18.34,-2.67 26.51,-5.64 c 1.62,-0.61 0.44,-2.62 -0.31,-3.43 c -3.71,-2.92 -28.25,17.85 -27.41,-3.32 c 1.96,-8.14 14.61,-8.4 20.8,-12.22 c 1.26,-2.26 -0.9,-4.43 -3.24,-3.4 c -8.48,4.61 -21.85,3.76 -22.1,15.99 Z M 793.8,675.97 c 0.02,0.81 -0.39,1.23 -1.23,1.27 c -4.52,-0.36 -19.6,-1.68 -22.97,0.37 c -1.52,1.53 -1.61,3.1 -0.28,4.7 c 3.29,2.19 21.06,10.44 24.96,9.5 c 6.75,-3.41 -12.93,-6.78 -14.37,-9.65 c 5.72,-0.8 11.47,-1.37 17.25,-1.72 c 2.03,-0.62 3.1,-0.99 3.04,-3.43 c -1.1,-2.2 -2.76,-3.85 -4.99,-4.95 c 0.4,-0.55 0.81,-1.1 1.21,-1.65 c 2.73,1.43 5.37,1.3 7.92,-0.4 c -0.37,-0.49 -0.73,-1.02 -1.08,-1.6 c -3.5,-1.37 -24.21,-9.84 -26.3,-8.52 c -1.01,1.29 -1,2.57 0.04,3.85 c 5.57,4.11 11.17,8.19 16.8,12.23 Z M 434.97,684.84 c -0.56,0.31 -0.9,0.78 -1.02,1.41 c -2.18,3.57 -2.39,7.83 -1.11,11.77 c 0.02,0.92 0.42,1.58 1.21,1.98 c 0.04,0.61 0.34,1.04 0.89,1.29 c 0.42,0.49 0.83,0.99 1.22,1.5 c 0.08,0.6 0.41,0.96 0.99,1.06 c 0.3,0.9 0.94,1.23 1.91,1 c 0.39,0.88 1.09,1.26 2.09,1.15 c 3.33,0.84 6.59,1.87 9.79,3.1 c 1.58,0.96 3.29,1.24 5.13,0.83 c 8.18,2.9 3.61,11.6 -4.52,9.9 c -2.46,-0.26 -4.12,-1.54 -4.97,-3.85 c -0.38,-1.37 -0.85,-2.67 -1.4,-3.92 c -0.11,-2.14 -5.36,-0.66 -6.69,-0.95 c -0.67,-0.03 -1.24,0.18 -1.71,0.64 c -1.25,0.07 -2.49,0.15 -3.73,0.22 c -1.53,-0.06 -3.95,0.02 -2.78,2.27 c 0.6,1.54 1.17,3.09 1.69,4.66 c -0.07,0.99 0.3,1.75 1.13,2.26 c 0.25,0.57 0.58,1.09 0.97,1.58 c 0.08,0.63 0.42,0.99 1.03,1.09 c 0.14,0.58 0.51,0.91 1.11,0.99 c 0.07,0.61 0.41,0.95 1.02,1.04 c 0.3,0.91 0.93,1.23 1.89,0.97 c 0.26,0.87 0.86,1.29 1.79,1.25 c 0.32,-0.01 0.64,-0.02 0.96,-0.04 c 0.42,0.81 1.1,1.14 2.04,0.96 c 0.92,0.92 2.05,1.24 3.39,0.98 c 3.54,0.45 7.1,0.51 10.66,0.19 c 1.32,0.14 2.44,-0.23 3.36,-1.1 c 8.56,-0.42 15.76,-9.8 13.93,-18.52 c -2.72,-16.08 -30.18,-12.44 -28.64,-19.51 c 1.02,-4.22 7.55,-4.05 10.24,-2.31 c 0.97,1.7 1.92,3.4 2.86,5.09 c 2.21,0.73 9.43,-0.11 12.27,0.2 c 0.94,0.11 1.64,-0.22 2.12,-0.99 c -0.84,-18.25 -30.98,-19.97 -39.12,-8.19 Z M 403.95,729.29 c 0.74,-0.34 1.1,-0.93 1.08,-1.76 c -0.04,-5.75 -0.06,-11.5 -0.04,-17.25 c 6.18,-0.07 12.36,-0.11 18.55,-0.12 c 0.92,-0.16 1.36,-0.72 1.31,-1.67 c -0.3,-1.5 0.44,-8.53 -0.53,-9.25 c -6.23,-0.16 -12.45,-0.29 -18.68,-0.39 c -1.74,-1.14 -0.72,-4.67 -0.87,-6.42 c 0.05,-1.47 0.81,-2.11 2.28,-1.91 c 6.43,0.1 12.87,0.16 19.3,0.18 c 1.18,-0.23 1.72,-0.96 1.62,-2.19 c -0.1,-2.69 -0.02,-5.38 0.25,-8.06 c 0.05,-0.64 -0.2,-1.12 -0.76,-1.44 c -9.98,0.08 -19.97,0.04 -29.96,-0.11 c -2.34,0.09 -4.67,0.12 -7.01,0.1 c -0.62,-0.09 -1.14,0.09 -1.57,0.54 c -0.18,16.33 -0.2,32.66 -0.04,48.99 c 0.39,0.54 0.91,0.8 1.58,0.79 c 4.5,-0.01 8.99,-0.02 13.49,-0.03 Z M 480.63,728.75 c 13.21,0.56 26.56,0.58 39.77,0.2 c 0.48,-0.34 0.7,-0.81 0.67,-1.4 c -0.07,-3.05 -0.03,-6.09 0.13,-9.13 c 0.1,-0.65 -0.11,-1.17 -0.63,-1.56 c -7.02,-0.12 -14.04,-0.18 -21.07,-0.19 c -0.96,0.06 -1.86,-0.14 -2.69,-0.6 c 0.16,-11.88 0.24,-23.76 0.24,-35.64 c 0.07,-0.92 -0.33,-1.44 -1.2,-1.56 c -0.35,0.06 -0.71,0.13 -1.06,0.19 c -4.12,-0.18 -8.24,-0.26 -12.38,-0.24 c -0.92,-0.14 -1.61,0.16 -2.08,0.91 c 0.18,15.6 0.16,31.2 -0.06,46.8 c -0.1,0.81 0.02,1.55 0.36,2.22 Z M 525.68,722.02 c -0.05,2.02 -0.03,4.04 0.03,6.06 c 0.35,0.71 0.93,1.04 1.75,0.97 c 8.52,0.16 17.04,0.11 25.55,-0.16 c 3.47,-0.52 6.8,-1.5 9.99,-2.96 c 0.59,-0.06 0.97,-0.38 1.13,-0.94 c 3.35,-2.36 5.55,-5.97 6.91,-9.86 c 0.86,-0.85 1.16,-1.88 0.89,-3.1 c 0.07,-0.34 0.13,-0.67 0.2,-1.01 c 0.38,-0.39 0.57,-0.87 0.57,-1.42 c 0.48,-3.72 0.53,-7.45 0.14,-11.18 c -0.01,-0.71 -0.35,-1.18 -1.01,-1.4 c 0.44,-1.26 0.17,-2.31 -0.8,-3.16 c -0.98,-4.93 -6.26,-11.28 -10.84,-13.06 c -0.3,-0.4 -0.7,-0.57 -1.21,-0.51 c -1.26,-0.45 -2.55,-0.56 -3.87,-0.32 c -0.32,-1.25 -4.57,-0.76 -5.61,-1.06 c -7.35,-0.03 -14.7,-0.06 -22.06,-0.11 c -0.63,-0.02 -1.24,0.1 -1.82,0.36 c 0.24,14.26 0.26,28.54 0.06,42.86 Z M 594.29,715.33 c 0.32,-0.36 0.64,-0.72 0.96,-1.09 c 0.52,-0.19 0.8,-0.57 0.85,-1.12 c 0.44,-0.24 0.76,-0.6 0.94,-1.07 c 0.51,-0.18 0.8,-0.55 0.86,-1.1 c 0.58,-0.88 1.31,-1.03 2.21,-0.47 c 1.6,3.21 3.34,6.34 5.23,9.39 c 0.2,0.98 0.7,1.77 1.48,2.37 c 2.82,9.5 8.74,6.03 16.68,6.63 c 2.16,-0.3 6.53,0.75 3.84,-2.88 c -6.01,-9.06 -11.81,-18.23 -17.4,-27.52 c -0.07,-0.6 0.08,-1.14 0.44,-1.61 c 3.76,-4.69 7.65,-9.25 11.66,-13.69 c 0.54,-0.31 0.84,-0.78 0.9,-1.41 c 0.44,-0.51 0.96,-0.93 1.57,-1.25 c 0.64,-0.79 0.5,-1.36 -0.43,-1.71 c -4.95,0.74 -17.68,-2.58 -19.93,3.02 c -0.62,0.24 -0.99,0.68 -1.11,1.34 c -0.46,0.52 -0.77,1.12 -0.93,1.78 c -0.67,0.17 -1.05,0.61 -1.14,1.31 c -1.99,2.69 -4.07,5.34 -6.24,7.95 c -0.72,0.77 -1.28,0.7 -1.69,-0.21 c 0.05,-4.83 0.06,-9.66 0.02,-14.48 c -0.81,-1.2 -1.88,-0.69 -3.1,-0.78 c -3.84,0.08 -7.67,0.14 -11.51,0.19 c -0.59,-0.03 -1.02,0.2 -1.31,0.7 c 0.16,16.26 0.22,32.52 0.17,48.78 c 0.24,0.39 0.6,0.55 1.07,0.49 c 4.69,0.03 9.38,0.01 14.07,-0.07 c 1.71,-0.96 -0.21,-10.91 1.84,-13.49 Z M 190.47,699.92 c 2.69,1.08 2.83,-0.14 5.26,-0.52 c 2.61,-1.44 5.26,-2.79 7.96,-4.03 c 1.33,-0.53 2.67,-0.84 4.03,-0.92 c -3.21,4.46 -10.07,8.69 -12.48,13.16 c -2.23,5.32 16.16,1.84 18.31,1.43 c 1.63,0.12 1.72,0.61 0.25,1.45 c -4.42,2.14 -9.1,4.16 -12.76,7 c -1.36,1.72 -0.95,2.59 1.23,2.62 c 4.3,-0.45 22.98,-9.97 24.66,-12.85 c 0.96,-2.38 -3.03,-2.82 -4.46,-3.07 c -6.36,0.39 -12.7,1.02 -19.02,1.89 c -4.36,-0.46 3.33,-4.96 4.23,-5.69 c 1.99,-3.24 11.45,-8.82 9.38,-12.9 c -5.17,-1.89 -21.68,6.61 -25.84,10.17 c -0.24,-0.1 -0.4,3.1 -0.75,2.26 Z M 542.22,691.19 c 2.27,-0.24 4.55,-0.29 6.83,-0.17 c 10.06,-0.43 10.84,24.04 2.26,25.59 c -2.89,0.42 -5.78,0.51 -8.69,0.26 c -0.51,-0.29 -0.77,-0.74 -0.8,-1.33 c 0.13,-6.39 -0.56,-18.65 0.4,-24.35 Z M 759.36,696.75 c 0.69,5.63 13.51,15.92 16.85,21.44 c 1.78,2.12 4.73,4.36 4.39,-0.44 c -1.28,-2.24 -2.15,-4.62 -2.6,-7.15 c 2.86,-14.49 10.06,-7.05 14.47,-13.9 c -1.58,-0.79 -3.26,-1.21 -5.05,-1.28 c -5.48,0.88 -25.15,-3.79 -28.06,1.33 Z M 766.94,699.98 c 0.19,-0.77 0.7,-1.07 1.52,-0.9 c 4.56,1.96 11.56,-1.29 6.86,5.74 c -2.5,4.89 -6.57,-3.04 -8.38,-4.84 Z M 741.56,726.24 c 0.63,4.21 17.59,16.56 21.96,18.6 c 1.89,0.18 2.34,-0.36 2.17,-2.22 c -2.53,-4.2 -6.07,-6.28 -6.05,-11.66 c 2.33,-2.64 12.87,2.17 16.27,-2.75 c 2.88,-3.47 -12.77,-2.87 -14.34,-2.9 c -5.73,-1 -4.54,-12.55 -5.63,-16.82 c -0.12,-2.7 -2.49,0.04 -3.12,0.76 c -3.97,4.37 2.1,13.74 1.44,19.28 c 0.08,0.65 -0.02,1.27 -0.28,1.87 c -2.06,1.98 -9.64,-9.65 -12.42,-4.16 Z M 229.18,749.13 c -4.58,1.26 -9.31,-1.78 -9.32,-6.67 c -0.21,-1.49 2.08,-11.01 -2.35,-7.47 c -6.62,9.41 5.85,24.74 14.69,17.2 c 7.94,-8.85 -5.77,-19.66 0.05,-22.49 c 12.35,-3.55 5.43,11.12 8.45,13.13 c 8.8,0.88 3.71,-24.23 -11.02,-16.68 c -9.58,6.95 2.49,15.02 -0.5,22.98 Z M 719.57,755.99 c 0.72,2.29 20.03,18.05 22.81,18.64 c 6.97,-1.86 -6.92,-8.81 -6.87,-11.69 c 2.19,-3.08 4.51,-6.07 6.95,-8.97 c 0.47,-0.57 1.07,-0.79 1.79,-0.65 c 3.07,2.26 6.22,4.4 9.45,6.41 c 1.72,0.35 3.75,-2.17 2.36,-3.32 c -6.79,-6.9 -15.41,-11.79 -21.62,-19.11 c -1.55,0.92 -3.71,3.09 -3.3,5.09 c 2.55,2.39 5.24,4.63 8.09,6.71 c 0.66,1.19 0.44,2.24 -0.64,3.14 c -1.08,1.23 -5.98,7.24 -7.15,7.39 c -3.19,-1.84 -6.21,-3.94 -9.08,-6.28 c -1.67,-0.42 -2.25,1.51 -2.79,2.64 Z M 229.28,761 c 0.61,2.17 1.89,2.71 3.82,1.62 c 6.71,-4.8 12.34,-11.25 19.13,-15.88 c 2.95,-2.38 -1.03,-5.74 -4.2,-3.02 c -3.07,2.65 -17.89,14.68 -18.75,17.28 Z M 234.87,768.24 c 4.66,5.41 9.55,10.58 14.68,15.52 c 2.16,1.88 6.43,-1.17 8.9,-1.3 c 8.05,2.5 9.16,7.7 6.9,15.08 c 0.18,1.18 0.69,2.21 1.53,3.09 c 1.25,-1.27 2.16,-2.75 2.72,-4.45 c 1.57,-5.33 9.85,-21.78 8.98,-26.25 c -7.18,-5.57 -25.48,12.17 -28.39,9.15 c -1.99,-3.06 -8.8,-8.44 -8.77,-11.98 c 3.6,-6.87 12.93,-10.94 16.3,-17.59 c -0.24,-1.33 -0.99,-2.19 -2.26,-2.59 c -1.19,0.79 -2.35,1.63 -3.51,2.53 c -5.3,6.04 -12.17,10.49 -17.45,16.41 c -0.23,0.84 -0.11,1.64 0.37,2.38 Z M 708.36,768.08 c 0.85,6.5 8.51,20.56 11.33,26.76 c 0.62,0.51 1.23,1 1.85,1.44 c -0.71,-0.09 1.18,-1.11 1.12,-2.63 c -0.58,-2.76 -3.35,-7.11 -1.01,-9.61 c 4.73,-6.71 7.93,-5.02 14.83,-3.86 c 0.87,-0.22 2.84,-0.91 2.1,-2.14 c -2.02,-1.36 -4.11,-2.62 -6.28,-3.76 c -5.83,-2.8 -11.67,-5.59 -17.49,-8.38 c -2.91,-0.69 -6.02,-1.96 -6.45,2.18 Z M 713.03,771.03 c 0.2,-0.66 0.64,-0.9 1.33,-0.71 c 2.53,1.34 5,2.79 7.4,4.35 c 1.27,0.56 1.61,1.43 1,2.6 c -0.96,0.6 -3.62,3.99 -4.74,3.08 c -1.84,-3 -3.51,-6.11 -4.99,-9.32 Z M 264.14,779.02 c 2.11,-2.62 4.85,-4 8.23,-4.14 c -0.22,1.4 -2.47,10.82 -4.31,9.36 c -1.99,-1.23 -3.29,-2.97 -3.92,-5.22 Z M 653.39,811.89 c 2.62,8.07 9.25,17 14.03,24.07 c 1.66,0.45 2.59,-0.28 2.8,-2.18 c -0.86,-1.94 -1.78,-3.85 -2.77,-5.73 c -0.96,-1.75 -0.74,-5.84 0.89,-6.99 c 4.08,-0.03 14.1,5.64 17.03,4.36 c 1.31,-1.32 2.83,-1.13 0.79,-2.76 c -3.88,-2.18 -14.88,-4.83 -15.99,-8.28 c 0.09,-3.03 0.86,-10.58 2.73,-12.89 c 3.86,-1.51 20.88,18.11 25.4,14.34 c 1.88,-6.5 -4.31,-14.32 -6.02,-20.54 c -0.34,-0.87 -0.41,-1.75 -0.21,-2.65 c 0.32,-0.27 0.64,-0.26 0.96,0.04 c 5.24,3.69 10.55,7.26 15.95,10.74 c 1.3,0.55 4.91,1.53 5.44,-0.4 c 1.2,-4.66 -8.04,-18.93 -9.8,-24.04 c -0.94,-1.09 -2.14,-4.59 -3.8,-4.45 c -0.2,1.32 -1.78,2.13 -1.1,3.6 c 2.6,6.61 5.54,13.07 8.79,19.38 c -0.47,0.45 -0.99,0.46 -1.55,0.02 c -3.73,-3.07 -13.8,-10.93 -18.17,-11.55 c -2.92,-0.57 -3.12,4.21 -2.39,6.04 c 1.95,5.99 5.57,11.21 7.17,17.55 c -0.31,0.92 -1.07,0.16 -1.58,-0.09 c -6.02,-4.19 -17.51,-19.39 -23.82,-7.85 c -1.94,5.83 -2.46,12.18 -5.2,17.75 c -1.87,-2.62 -3.92,-5.15 -6.17,-7.57 c -0.82,-0.63 -1.73,-1.06 -2.74,-1.29 c 0.03,0.57 -0.19,1.02 -0.67,1.37 Z M 275.23,807.15 c 0.25,0.34 0.45,0.71 0.58,1.1 c 0.98,0.21 1.91,0.11 2.8,-0.31 c 4.7,-5.85 9.59,-11.54 14.66,-17.07 c 1.45,-1.69 6.35,2.5 7.44,3.62 c 0.41,0.48 0.55,1.03 0.4,1.65 c -6.61,9.63 -17.33,22.9 -0.03,29.13 c 8.43,3.77 15.33,-10.85 19.69,-15.93 c 1.05,-1.29 1.31,-2.69 0.77,-4.21 c 0.07,0.04 0.14,0.07 0.21,0.1 c -2.63,-0.82 -2.69,-0.16 -4.48,1.5 c -4.17,3.76 -7.81,13.21 -12.88,14.98 c -2.11,0.05 -3.96,-0.63 -5.57,-2.05 c -10.85,-8.87 12.38,-20.1 7.19,-26.33 c -5.24,-4.66 -14.05,-12.6 -19.8,-15.83 c -5.66,-0.25 1.32,6.64 2.73,7.78 c 0.37,0.31 0.54,0.71 0.49,1.2 c -4.1,5.4 -8.05,10.93 -11.83,16.59 c -0.84,1.33 -1.63,2.69 -2.37,4.08 Z M 327.65,831.11 c 0.53,2.5 0.34,11.22 1.93,12.79 c 2.05,0.77 4,1.72 5.83,2.84 c 1.72,-1.21 3.34,-2.56 4.85,-4.07 c 0.79,-0.93 1.78,-1.34 2.97,-1.22 c 9.79,2.73 9.01,3.49 9.99,12.94 c 0.53,1.04 1.18,2.35 2.18,0.83 c 2.44,-4.95 2.88,-25.33 1.56,-30.65 c -0.84,-1.58 -4.09,0.25 -5.02,0.99 c -6.13,5.84 -12.12,11.81 -17.96,17.94 c -0.4,0.32 -0.78,0.32 -1.14,0 c -0.37,-3.48 -0.72,-6.96 -1.04,-10.45 c -0.09,-1.04 -0.56,-2.49 0.74,-2.99 c 9.6,0.5 13.56,-9.54 6.03,-15.24 c -4.19,-2.42 -8.34,-4.91 -12.45,-7.47 c -0.73,-0.33 -1.41,-0.24 -2.02,0.26 c -4.03,8.16 -8.38,16.14 -13.04,23.93 c 0.27,1.86 1.3,2.57 3.1,2.15 c 2.18,-2.9 4.14,-5.94 5.89,-9.12 c 2.22,-2.46 6.87,4.81 7.6,6.54 Z M 323.08,819.97 c 0.71,-2.23 1.7,-4.34 2.97,-6.31 c 2.72,-2.85 9.64,4.53 10.86,7.03 c 1.16,2.25 -0.98,5.1 -3.24,5.06 c -2.82,-1.2 -8.86,-3.29 -10.59,-5.78 Z M 637.94,822 c 0.31,4.6 1.77,25.89 3.96,28.6 c 6.13,2.42 1.44,-9.67 4,-11.21 c 0.59,-0.39 1.2,-0.75 1.82,-1.09 c 2.17,-1.18 4.41,-2.19 6.7,-3.03 c 2.49,1.42 4.92,2.94 7.29,4.57 c 1.77,0.5 5.58,-1.17 3.09,-3.19 c -7.29,-6.36 -14.81,-12.44 -22.56,-18.24 c -0.42,-0.2 -0.86,-0.23 -1.31,-0.1 c -2.13,0.34 -3.12,1.57 -2.99,3.69 Z M 642.63,825.91 c -0.23,-1.29 0.25,-1.75 1.43,-1.38 c 2.2,2.33 4.38,4.67 6.53,7.01 c 0.04,0.45 -0.14,0.79 -0.52,1.02 c -1.38,0.39 -6.55,5.68 -6.65,1.77 c -0.28,-2.8 -0.55,-5.61 -0.79,-8.42 Z M 607.41,836.94 c 2.09,4.69 8.84,21.65 12.3,24.04 c 2.76,0.09 8,-2.97 10.57,-4.33 c 14.59,-8.09 2.81,-31.36 -11.04,-26.98 c -3.72,1.54 -7.4,3.18 -11.03,4.92 c -0.67,0.64 -0.93,1.42 -0.8,2.35 Z M 347.31,837.03 c -0.01,-1.79 5.52,-8.13 6.59,-6.46 c 0.28,4.03 0.06,6.53 -1.63,10.05 c -1.76,-0.62 -4.85,-1.29 -4.96,-3.59 Z M 358.04,856 c 0.24,2.05 1.36,2.72 3.35,2.02 c 1.23,-2.49 2.37,-5.04 3.42,-7.64 c 0.44,-1.12 1.09,-2.08 1.94,-2.88 c 3.86,1.56 7.71,3.14 11.55,4.76 c 0.43,0.26 0.59,0.64 0.51,1.14 c -0.29,2.06 -6.11,14.25 -0.02,11.88 c 3.28,-4.38 4.09,-9.33 5.63,-14.46 c 0.4,-2.73 7.64,-14.04 0.56,-12.29 c -1.45,3.12 -2.56,6.37 -3.3,9.76 c -0.46,0.75 -1.11,0.95 -1.95,0.59 c -3.19,-1.51 -6.39,-3.01 -9.6,-4.49 c -1.41,-0.89 -1.74,-2.11 -0.98,-3.66 c 0.85,-2.72 1.74,-5.41 2.66,-8.07 c -0.71,-1.05 -1.69,-1.45 -2.92,-1.18 c -4.78,7.64 -7.95,15.99 -10.85,24.52 Z M 612.98,836.99 c 4.32,-5.82 16.98,-4.5 18.54,4.81 c 0.82,6.71 -0.51,11.73 -7.78,13.44 c -4.37,1.03 -7.15,-10.54 -9.31,-13.22 c -0.72,-1.61 -1.2,-3.29 -1.45,-5.03 Z M 383.59,867.13 c 0.66,1.52 1.68,1.87 3.07,1.05 c 2.02,-5.14 3.84,-10.35 5.46,-15.63 c 0.15,-0.7 1.14,-1.92 1.79,-0.98 c -0.05,3.66 -0.55,17.32 1.13,19.83 c 1.31,0.93 2.57,0.89 3.8,-0.12 c 3.94,-5.34 7.84,-10.7 11.68,-16.07 c 0.32,0.34 0.41,0.75 0.29,1.22 c -0.39,2.75 -5.42,17.27 -4.49,18.75 c 4.97,3.98 6.26,-12.65 7.99,-15.24 c -0.04,-1.95 4.06,-11.58 1.7,-12.29 c -1.35,-0.71 -2.68,-0.7 -3.97,0.04 c -4.28,5.71 -8.38,11.56 -12.28,17.54 c -0.98,0.81 -1.56,0.57 -1.74,-0.72 c -0.12,-7.35 -0.46,-14.69 -1.03,-22.01 c -0.2,-1.51 -4.71,-2.95 -5.34,-1.35 c -3.11,8.57 -5.99,17.1 -8.06,25.98 Z M 586.84,844.98 c -0.26,1.68 -0.44,3.36 -0.54,5.06 c -0.56,7.2 -1.99,14.08 -0.7,21.29 c 0.66,2.32 1.89,1.25 2.81,-0.12 c 0.64,-2.5 1.26,-5.01 1.85,-7.51 c 10.65,-9.63 13.27,2.53 17.31,1.89 c 0.65,-0.24 1.31,-0.41 1.97,-0.5 c 1.53,-2.64 -14.59,-18.89 -16.84,-22.12 c -2.45,-1.8 -5.41,-1.36 -5.86,2.01 Z M 589.67,853 c -0.09,-1.83 0.05,-3.64 0.4,-5.43 c 0.04,-3.12 6.75,7.66 6.65,7.99 c 0.84,1.61 -7.77,7.12 -7.05,-2.56 Z M 554.65,856.85 c -3.28,14.89 7.79,25.4 22.3,18.55 c 6.56,-2.97 5.92,-7.42 4.13,-13.42 c -0.55,-1.19 -0.73,-2.99 -2.51,-2.65 c -1.54,0.33 -3.06,0.71 -4.57,1.15 c -1.96,0.68 -3.87,1.45 -5.71,2.31 c -0.42,1.4 -0.01,2.49 1.21,3.24 c 2.37,-0.25 4.73,-0.64 7.06,-1.15 c 0.74,0.07 1.32,0.41 1.75,1.01 c 0.86,9.61 -17.22,11.68 -19.36,-0.85 c -0.57,-7.13 0.5,-11.61 8.09,-13.42 c 3.15,-0.94 12.56,8.26 10.91,0.97 c -1.89,-2.82 -4.53,-4.47 -7.92,-4.92 c -7.24,0.03 -12.33,2.36 -15.38,9.18 Z M 414.93,875.01 c -0.17,2.45 2.46,2.98 3.43,0.79 c 3.81,-7.43 4.11,-16.41 6.68,-24.35 c 0.23,-1.73 -1.54,-2.93 -2.95,-1.84 c -2.56,7.74 -6.54,17.33 -7.16,25.4 Z M 428.9,878.01 c -0.07,0.74 0.14,1.4 0.62,1.96 c 2.42,0.66 15.99,3.96 17.27,2.32 c 2.93,-6.51 -11.29,-3.01 -13.15,-6.27 c -0.2,-6.4 2.44,-15.88 2.95,-22.62 c 0.39,-1.65 -4.07,-3.21 -4.4,-0.83 c -1.07,8.48 -2.16,16.96 -3.29,25.44 Z M 537.09,874.34 c 8.68,-2.75 11,-1.64 15.59,5.4 c 0.81,0.34 1.62,0.66 2.44,0.94 c 0.37,-0.94 0.45,-1.9 0.24,-2.87 c -2.56,-5.1 -5.3,-10.1 -8.22,-15.01 c -2.09,-2.75 -4.07,-5.57 -5.96,-8.46 c -0.49,-0.36 -1.03,-0.55 -1.64,-0.57 c -1.64,-0.3 -2.78,0.3 -3.4,1.78 c 0.31,3.68 -7.23,27.21 -5.34,28.12 c 5.51,2.04 4.57,-6.23 6.29,-9.33 Z M 452.87,883.37 c 2.76,-0.72 20.69,4.55 18.48,-1.45 c -0.62,-1.58 -8.57,-1.26 -10.37,-1.61 c -2.55,0.04 -6.13,0.95 -6.3,-2.79 c 0.09,-2.32 0.65,-4.53 1.66,-6.63 c 1.97,0.4 14.52,3.16 14.52,-0.42 c 0.73,-3.94 -12.21,-2.17 -14.8,-3.57 c -0.36,-2.98 -2.03,-8.39 2.82,-8.05 c 4.14,0.15 7.26,1.2 11.38,0.03 c 2.04,-0.63 2.01,-1.34 -0.08,-2.14 c -4.71,-1.94 -10.58,-1.47 -15.6,-1.81 c -0.86,-0.01 -1.55,0.32 -2.07,0.99 c -1.28,5.55 -3.24,21.81 -1.48,26.88 c 0.56,0.37 1.17,0.56 1.84,0.57 Z M 505.86,857.98 c 0.71,7.19 0.35,20.75 2.62,26.97 c 1.74,1.65 11.26,-0.22 13.7,-0.41 c 9.32,-2.19 6.89,-10.33 3.25,-16.09 c 0.26,-4.87 1.35,-9.69 -4.21,-11.99 c -4.93,-1.72 -9.67,0.01 -14.59,0.73 c -0.37,0.15 -0.63,0.42 -0.77,0.79 Z M 474.95,881 c 0.38,2.07 0.05,3.27 2.1,4.41 c 1,-1.13 1.55,-2.46 1.64,-4.01 c 0.17,-5.06 0.43,-10.09 0.79,-15.09 c 0.9,0.35 1.47,1.01 1.7,1.98 c 1.74,2.09 4.4,20.53 8.56,16.71 c 4.16,-4.41 5.8,-12.78 7.25,-18.52 c 0.27,-1.57 2.02,-1.82 1.88,0.01 c 0.41,2.99 -0.71,17.01 0.96,18.62 c 2.11,2.59 2.57,-2.63 2.82,-3.68 c 0.16,-3.89 1.19,-22.27 -1.32,-24.2 c -2.12,0.03 -3.71,0.97 -4.76,2.84 c -2.5,6.23 -4.9,12.47 -7.21,18.72 c -0.48,0.09 -0.83,-0.09 -1.04,-0.54 c -1.04,-3.99 -5.37,-24.57 -11.69,-21.23 c -2.46,3.22 -1.16,19.24 -1.68,23.98 Z M 543.35,865.24 c 0.96,1.36 1.25,2.83 0.87,4.4 c -2.31,1.19 -4.75,1.53 -7.33,1.02 c 2,-2.11 1.31,-10.26 2.74,-11.42 c 1.72,0.23 2.89,4.63 3.72,6 Z M 511.04,860.15 c 2.61,-0.08 5.21,-0.05 7.81,0.11 c 6.06,2.91 2.7,9.01 -3.34,8.89 c -4.18,-0.22 -6,-2.43 -5.46,-6.64 c -0.15,-1.03 0.18,-1.82 0.99,-2.36 Z M 510.89,875.97 c 0.08,-0.99 0.39,-1.89 0.93,-2.71 c 4,-1.46 11.9,-2.3 13,3.27 c -1.09,4.96 -7.12,5.54 -11.27,5.39 c -2.65,-0.06 -2.23,-4.19 -2.66,-5.95 Z"/></g>
<g><path fill="#dd282d" stroke="#dd282d" stroke-width="0.5" d="M 404.99,710.28 c -0.72,0.03 -1.05,0.43 -1,1.19 c 0,5.94 -0.01,11.88 -0.04,17.82 c -4.5,0.01 -8.99,0.02 -13.49,0.03 c -0.67,0.01 -1.19,-0.25 -1.58,-0.79 c -0.16,-16.33 -0.14,-32.66 0.04,-48.99 c 0.43,-0.45 0.95,-0.63 1.57,-0.54 c 2.34,0.02 4.67,-0.01 7.01,-0.1 c 9.99,0.15 19.98,0.19 29.96,0.11 c 0.56,0.32 0.81,0.8 0.76,1.44 c -0.27,2.68 -0.35,5.37 -0.25,8.06 c 0.1,1.23 -0.44,1.96 -1.62,2.19 c -6.43,-0.02 -12.87,-0.08 -19.3,-0.18 c -1.47,-0.2 -2.23,0.44 -2.28,1.91 c 0.15,1.75 -0.87,5.28 0.87,6.42 c 6.23,0.1 12.45,0.23 18.68,0.39 c 0.97,0.72 0.23,7.75 0.53,9.25 c 0.05,0.95 -0.39,1.51 -1.31,1.67 c -6.19,0.01 -12.37,0.05 -18.55,0.12 Z"/></g>
<g><path fill="#d9282e" stroke="#d9282e" stroke-width="0.5" d="M 555.11,679.97 c -5.49,0.45 -23.28,-0.56 -27.32,0.26 c -1.13,1.84 -1.31,4.45 1.51,4.52 c 0.54,-0.97 1.26,-1.77 2.16,-2.38 c 3.25,0.48 6.52,0.75 9.81,0.82 c 1.8,1.3 2.23,2.94 1.28,4.93 c -1.79,1.25 -3.67,2.35 -5.63,3.32 c -3.64,3.66 -0.06,12.06 -1.05,16.93 c -0.19,1.7 -0.43,3.39 -0.72,5.07 c 0.68,0.65 1.3,1.34 1.86,2.07 c -0.11,0.69 -0.3,1.36 -0.56,2.02 c 1.79,0.71 4.41,2.38 2.08,4.43 c 0.04,0.67 -0.03,1.31 -0.19,1.91 c -1.08,0.31 -2.09,0.19 -3.03,-0.35 c 0.3,-0.5 0.29,-0.96 -0.02,-1.38 c -1.09,-0.04 -2.09,-0.32 -3.01,-0.85 c -4.05,-6.04 -2.49,-14.17 -0.75,-20.75 c -1.35,-2.74 -2.24,-3.88 -2.52,-7.03 c -0.39,-1.08 -2.11,-1.99 -1.87,-0.06 c -0.11,9.04 -0.15,18.08 -0.13,27.11 c -0.1,0.81 -0.54,1.3 -1.33,1.46 c 0.2,-14.32 0.18,-28.6 -0.06,-42.86 c 0.58,-0.26 1.19,-0.38 1.82,-0.36 c 7.36,0.05 14.71,0.08 22.06,0.11 c 1.04,0.3 5.29,-0.19 5.61,1.06 Z"/></g>
<g><path fill="#e3292a" stroke="#e3292a" stroke-width="0.5" d="M 494.79,679.06 c -0.04,3.81 0.58,7.93 -0.22,11.61 c -0.35,-0.62 -0.59,-1.29 -0.73,-2 c -0.57,-0.13 -1.17,-0.18 -1.82,-0.13 c -0.46,-0.19 -0.9,-0.42 -1.32,-0.69 c -0.14,-0.54 -0.27,-1.07 -0.39,-1.6 c -1.3,-0.17 -2.58,-0.46 -3.82,-0.87 c -0.24,0.69 -0.22,1.4 0.07,2.12 c -2.06,1.33 -0.73,0.83 -0.81,2.83 c -1.06,1.36 -1.1,2.73 -0.11,4.14 c -0.88,1.32 -0.91,2.65 -0.06,3.98 c -1.79,3.74 0.84,10.53 -1.71,13.07 c -0.2,1.52 -0.96,3.93 0.51,5.04 c -1.21,1.06 0.06,2.01 0.46,3.1 c 0.31,1.46 -0.25,2.85 1.48,3.53 c 1.07,0.28 2.16,0.47 3.28,0.57 c 2.57,-0.32 1.79,-0.69 4.05,1.06 c 2.71,0.37 2.42,-0.18 4.06,2.03 c 1.69,0.02 3.34,0.23 4.96,0.62 c -6.71,0.37 -13.43,0.48 -20.17,0.32 c -0.78,0.02 -1.41,0.35 -1.87,0.96 c -0.34,-0.67 -0.46,-1.41 -0.36,-2.22 c 0.22,-15.6 0.24,-31.2 0.06,-46.8 c 0.47,-0.75 1.16,-1.05 2.08,-0.91 c 4.14,-0.02 8.26,0.06 12.38,0.24 Z"/></g>
<g><path fill="#dc262b" stroke="#dc262b" stroke-width="0.5" d="M 494.79,679.06 c 0.35,-0.06 0.71,-0.13 1.06,-0.19 c 0.18,0.89 0.28,1.79 0.32,2.69 c -0.15,10.99 -0.21,21.98 -0.17,32.98 c -0.06,0.7 0.21,1.22 0.81,1.53 c 0.83,0.46 1.73,0.66 2.69,0.6 c 7.03,0.01 14.05,0.07 21.07,0.19 c 0.52,0.39 0.73,0.91 0.63,1.56 c -0.16,3.04 -0.2,6.08 -0.13,9.13 c 0.03,0.59 -0.19,1.06 -0.67,1.4 c -13.21,0.38 -26.56,0.36 -39.77,-0.2 c 0.46,-0.61 1.09,-0.94 1.87,-0.96 c 6.74,0.16 13.46,0.05 20.17,-0.32 c -1.62,-0.39 -3.27,-0.6 -4.96,-0.62 c -1.64,-2.21 -1.35,-1.66 -4.06,-2.03 c -2.26,-1.75 -1.48,-1.38 -4.05,-1.06 c -1.12,-0.1 -2.21,-0.29 -3.28,-0.57 c -1.73,-0.68 -1.17,-2.07 -1.48,-3.53 c -0.4,-1.09 -1.67,-2.04 -0.46,-3.1 c -1.47,-1.11 -0.71,-3.52 -0.51,-5.04 c 2.55,-2.54 -0.08,-9.33 1.71,-13.07 c -0.85,-1.33 -0.82,-2.66 0.06,-3.98 c -0.99,-1.41 -0.95,-2.78 0.11,-4.14 c 0.08,-2 -1.25,-1.5 0.81,-2.83 c -0.29,-0.72 -0.31,-1.43 -0.07,-2.12 c 1.24,0.41 2.52,0.7 3.82,0.87 c 0.12,0.53 0.25,1.06 0.39,1.6 c 0.42,0.27 0.86,0.5 1.32,0.69 c 0.65,-0.05 1.25,0 1.82,0.13 c 0.14,0.71 0.38,1.38 0.73,2 c 0.8,-3.68 0.18,-7.8 0.22,-11.61 Z"/></g>
<g><path fill="#bf7782" d="M 495.85,678.87 c 0.87,0.12 1.27,0.64 1.2,1.56 c 0,11.88 -0.08,23.76 -0.24,35.64 c -0.6,-0.31 -0.87,-0.83 -0.81,-1.53 c -0.04,-11 0.02,-21.99 0.17,-32.98 c -0.04,-0.9 -0.14,-1.8 -0.32,-2.69 Z"/></g>
<g><path fill="#c63a48" d="M 525.71,728.08 c 8.93,-0.06 17.85,-0.07 26.76,-0.03 c 0.47,0.1 0.65,0.38 0.54,0.84 c -8.51,0.27 -17.03,0.32 -25.55,0.16 c -0.82,0.07 -1.4,-0.26 -1.75,-0.97 Z"/></g>
<g><path fill="#c8717f" d="M 404.99,710.28 c -0.02,5.75 0,11.5 0.04,17.25 c 0.02,0.83 -0.34,1.42 -1.08,1.76 c 0.03,-5.94 0.04,-11.88 0.04,-17.82 c -0.05,-0.76 0.28,-1.16 1,-1.19 Z M 445.18,712.06 c -2.8,0.01 -5.6,-0.1 -8.4,-0.31 c 0.47,-0.46 1.04,-0.67 1.71,-0.64 c 1.33,0.29 6.58,-1.19 6.69,0.95 Z"/></g>
<g><path fill="#5f5d5d" d="M 521.22,856.46 c -0.99,0.33 -2,0.57 -3.01,0.72 c 0.61,0.94 0.82,1.97 0.64,3.08 c -2.6,-0.16 -5.2,-0.19 -7.81,-0.11 c 0.1,-1.17 0.73,-1.57 -0.32,-2.43 c -1.6,0.41 -3.22,0.5 -4.86,0.26 c 0.14,-0.37 0.4,-0.64 0.77,-0.79 c 4.92,-0.72 9.66,-2.45 14.59,-0.73 Z"/></g>
<g><path fill="#bf9fae" d="M 571.03,693.86 c 0.97,0.85 1.24,1.9 0.8,3.16 c -0.65,-0.93 -0.91,-1.98 -0.8,-3.16 Z M 571.83,697.02 c 0.66,0.22 1,0.69 1.01,1.4 c 0.39,3.73 0.34,7.46 -0.14,11.18 c 0,0.55 -0.19,1.03 -0.57,1.42 c -0.75,-2.22 0.21,-5.26 0.15,-7.6 c -0.13,-2.14 -0.28,-4.27 -0.45,-6.4 Z"/></g>
<g><path fill="#e2272b" stroke="#e2272b" stroke-width="0.5" d="M 555.11,679.97 c 1.32,-0.24 2.61,-0.13 3.87,0.32 c 0.29,0.42 0.69,0.59 1.21,0.51 c 4.58,1.78 9.86,8.13 10.84,13.06 c -0.11,1.18 0.15,2.23 0.8,3.16 c 0.17,2.13 0.32,4.26 0.45,6.4 c 0.06,2.34 -0.9,5.38 -0.15,7.6 c -0.07,0.34 -0.13,0.67 -0.2,1.01 c -0.84,0.86 -1.14,1.89 -0.89,3.1 c -1.36,3.89 -3.56,7.5 -6.91,9.86 c -0.57,0.08 -0.95,0.4 -1.13,0.94 c -3.19,1.46 -6.52,2.44 -9.99,2.96 c 0.11,-0.46 -0.07,-0.74 -0.54,-0.84 c -8.91,-0.04 -17.83,-0.03 -26.76,0.03 c -0.06,-2.02 -0.08,-4.04 -0.03,-6.06 c 0.79,-0.16 1.23,-0.65 1.33,-1.46 c -0.02,-9.03 0.02,-18.07 0.13,-27.11 c -0.24,-1.93 1.48,-1.02 1.87,0.06 c 0.28,3.15 1.17,4.29 2.52,7.03 c -1.74,6.58 -3.3,14.71 0.75,20.75 c 0.92,0.53 1.92,0.81 3.01,0.85 c 0.31,0.42 0.32,0.88 0.02,1.38 c 0.94,0.54 1.95,0.66 3.03,0.35 c 0.16,-0.6 0.23,-1.24 0.19,-1.91 c 2.33,-2.05 -0.29,-3.72 -2.08,-4.43 c 0.26,-0.66 0.45,-1.33 0.56,-2.02 c -0.56,-0.73 -1.18,-1.42 -1.86,-2.07 c 0.29,-1.68 0.53,-3.37 0.72,-5.07 c 0.99,-4.87 -2.59,-13.27 1.05,-16.93 c 1.96,-0.97 3.84,-2.07 5.63,-3.32 c 0.95,-1.99 0.52,-3.63 -1.28,-4.93 c -3.29,-0.07 -6.56,-0.34 -9.81,-0.82 c -0.9,0.61 -1.62,1.41 -2.16,2.38 c -2.82,-0.07 -2.64,-2.68 -1.51,-4.52 c 4.04,-0.82 21.83,0.19 27.32,-0.26 Z M 542.22,691.19 c -0.96,5.7 -0.27,17.96 -0.4,24.35 c 0.03,0.59 0.29,1.04 0.8,1.33 c 2.91,0.25 5.8,0.16 8.69,-0.26 c 8.58,-1.55 7.8,-26.02 -2.26,-25.59 c -0.62,-1.72 -4.97,-1.02 -6.39,-0.81 c -0.38,0.22 -0.53,0.55 -0.44,0.98 Z"/></g>
<g><path fill="#e4e2e2" d="M 796.42,670.41 c -0.4,0.55 -0.81,1.1 -1.21,1.65 c -1.04,-0.8 -7.63,-3.71 -6.56,-4.96 c 3.18,0.13 5.19,1.62 7.77,3.31 Z"/></g>
<g><path fill="#a5b293" d="M 673.93,504.92 c 0.16,4.4 0.09,8.79 -0.21,13.18 c -0.52,-0.38 -0.77,-0.9 -0.73,-1.57 c 0.24,-2.1 -0.74,-10.49 0.94,-11.61 Z"/></g>
<g><path fill="#a7af85" d="M 527.35,488.81 c 1.96,2.22 1.35,4.31 1.56,7.04 c -0.3,-0.11 -0.52,-0.3 -0.68,-0.57 c -0.1,-1.37 -0.41,-2.68 -0.92,-3.92 c -0.22,-0.85 -0.21,-1.7 0.04,-2.55 Z"/></g>
<g><path fill="#c1949a" d="M 434.06,722.74 c 0.61,0.12 0.95,0.48 1.03,1.09 c -0.61,-0.1 -0.95,-0.46 -1.03,-1.09 Z M 435.09,723.83 c 0.47,0.23 0.83,0.56 1.11,0.99 c -0.6,-0.08 -0.97,-0.41 -1.11,-0.99 Z M 436.2,724.82 c 0.41,0.27 0.75,0.62 1.02,1.04 c -0.61,-0.09 -0.95,-0.43 -1.02,-1.04 Z M 437.22,725.86 c 0.71,0.16 1.34,0.49 1.89,0.97 c -0.96,0.26 -1.59,-0.06 -1.89,-0.97 Z M 439.11,726.83 c 0.81,0.13 1.41,0.55 1.79,1.25 c -0.93,0.04 -1.53,-0.38 -1.79,-1.25 Z"/></g>
<g><path fill="#cc5a71" d="M 549.05,691.02 c -2.28,-0.12 -4.56,-0.07 -6.83,0.17 c -0.09,-0.43 0.06,-0.76 0.44,-0.98 c 1.42,-0.21 5.77,-0.91 6.39,0.81 Z"/></g>
<g><path fill="#bc818f" d="M 436.16,702.79 c 0.51,0.19 0.84,0.54 0.99,1.06 c -0.58,-0.1 -0.91,-0.46 -0.99,-1.06 Z M 437.15,703.85 c 0.74,0.15 1.37,0.49 1.91,1 c -0.97,0.23 -1.61,-0.1 -1.91,-1 Z M 439.06,704.85 c 0.83,0.16 1.52,0.55 2.09,1.15 c -1,0.11 -1.7,-0.27 -2.09,-1.15 Z"/></g>
<g><path fill="#ca7685" d="M 450.94,709.1 c 1.01,-0.24 4.61,-0.07 5.13,0.83 c -1.84,0.41 -3.55,0.13 -5.13,-0.83 Z"/></g>
<g><path fill="#c46a73" d="M 433.05,711.97 c -0.95,0.72 -1.87,1.48 -2.78,2.27 c -1.17,-2.25 1.25,-2.33 2.78,-2.27 Z"/></g>
<g><path fill="#94ac94" d="M 632.03,421.95 c 0.88,0.89 1.13,1.96 0.77,3.22 c -0.65,-0.97 -0.91,-2.04 -0.77,-3.22 Z"/></g>
<g><path fill="#c66d85" d="M 605.34,719.87 c 1.21,0.31 1.71,1.1 1.48,2.37 c -0.78,-0.6 -1.28,-1.39 -1.48,-2.37 Z"/></g>
<g><path fill="#e0272c" stroke="#e0272c" stroke-width="0.5" d="M 474.09,693.03 c -0.92,-0.08 -1.63,0.25 -2.12,0.99 c -2.84,-0.31 -10.06,0.53 -12.27,-0.2 c -0.94,-1.69 -1.89,-3.39 -2.86,-5.09 c -2.69,-1.74 -9.22,-1.91 -10.24,2.31 c -1.54,7.07 25.92,3.43 28.64,19.51 c 1.83,8.72 -5.37,18.1 -13.93,18.52 c -0.96,-0.1 -3.31,-0.37 -3.36,1.1 c -3.56,0.32 -7.12,0.26 -10.66,-0.19 c -0.94,-0.97 -2.07,-1.29 -3.39,-0.98 c -0.47,-0.73 -1.15,-1.05 -2.04,-0.96 c -0.32,0.02 -0.64,0.03 -0.96,0.04 c -0.38,-0.7 -0.98,-1.12 -1.79,-1.25 c -0.55,-0.48 -1.18,-0.81 -1.89,-0.97 c -0.27,-0.42 -0.61,-0.77 -1.02,-1.04 c -0.28,-0.43 -0.64,-0.76 -1.11,-0.99 c -0.08,-0.61 -0.42,-0.97 -1.03,-1.09 c -0.39,-0.49 -0.72,-1.01 -0.97,-1.58 c -0.02,-0.94 -0.39,-1.69 -1.13,-2.26 c -0.52,-1.57 -1.09,-3.12 -1.69,-4.66 c 0.91,-0.79 1.83,-1.55 2.78,-2.27 c 1.24,-0.07 2.48,-0.15 3.73,-0.22 c 2.8,0.21 5.6,0.32 8.4,0.31 c 0.55,1.25 1.02,2.55 1.4,3.92 c 0.85,2.31 2.51,3.59 4.97,3.85 c 8.13,1.7 12.7,-7 4.52,-9.9 c -0.52,-0.9 -4.12,-1.07 -5.13,-0.83 c -3.2,-1.23 -6.46,-2.26 -9.79,-3.1 c -0.57,-0.6 -1.26,-0.99 -2.09,-1.15 c -0.54,-0.51 -1.17,-0.85 -1.91,-1 c -0.15,-0.52 -0.48,-0.87 -0.99,-1.06 c -0.39,-0.51 -0.8,-1.01 -1.22,-1.5 c -0.04,-0.62 -0.34,-1.05 -0.89,-1.29 c 0.1,-0.99 -0.3,-1.65 -1.21,-1.98 c -1.28,-3.94 -1.07,-8.2 1.11,-11.77 c 0.62,-0.26 0.96,-0.73 1.02,-1.41 c 8.14,-11.78 38.28,-10.06 39.12,8.19 Z M 589.96,678.73 c 0.64,0.64 1.3,1.24 1.99,1.83 c -0.05,4.29 0.04,8.58 0.26,12.87 c 0.15,0.38 0.42,0.57 0.83,0.56 c 0.41,0.91 0.97,0.98 1.69,0.21 c 2.17,-2.61 4.25,-5.26 6.24,-7.95 c 0.61,-0.24 0.99,-0.68 1.14,-1.31 c 0.16,-0.66 0.47,-1.26 0.93,-1.78 c 0.53,-0.31 0.9,-0.76 1.11,-1.34 c 2.25,-5.6 14.98,-2.28 19.93,-3.02 c 0.15,0.57 0.29,1.14 0.43,1.71 c -0.61,0.32 -1.13,0.74 -1.57,1.25 c -0.5,0.34 -0.8,0.81 -0.9,1.41 c -4.01,4.44 -7.9,9 -11.66,13.69 c -0.36,0.47 -0.51,1.01 -0.44,1.61 c 5.59,9.29 11.39,18.46 17.4,27.52 c 2.69,3.63 -1.68,2.58 -3.84,2.88 c -7.94,-0.6 -13.86,2.87 -16.68,-6.63 c 0.23,-1.27 -0.27,-2.06 -1.48,-2.37 c -1.89,-3.05 -3.63,-6.18 -5.23,-9.39 c -0.9,-0.56 -1.63,-0.41 -2.21,0.47 c -0.55,0.15 -0.84,0.52 -0.86,1.1 c -0.6,0.1 -0.91,0.45 -0.94,1.07 c -0.05,0.55 -0.33,0.93 -0.85,1.12 c -0.68,0.04 -1,0.4 -0.96,1.09 c -2.05,2.58 -0.13,12.53 -1.84,13.49 c -4.69,0.08 -9.38,0.1 -14.07,0.07 c -0.47,0.06 -0.83,-0.1 -1.07,-0.49 c 0.05,-16.26 -0.01,-32.52 -0.17,-48.78 c 0.29,-0.5 0.72,-0.73 1.31,-0.7 c 3.84,-0.05 7.67,-0.11 11.51,-0.19 Z"/></g>
<g><path fill="#b3676e" d="M 461.31,729.07 c -0.92,0.87 -2.04,1.24 -3.36,1.1 c 0.05,-1.47 2.4,-1.2 3.36,-1.1 Z"/></g>
<g><path fill="#bb777f" d="M 441.86,728.04 c 0.89,-0.09 1.57,0.23 2.04,0.96 c -0.94,0.18 -1.62,-0.15 -2.04,-0.96 Z M 443.9,729 c 1.32,-0.31 2.45,0.01 3.39,0.98 c -1.34,0.26 -2.47,-0.06 -3.39,-0.98 Z"/></g>
<g><path fill="#c1919e" d="M 571.93,712.03 c 0.27,1.22 -0.03,2.25 -0.89,3.1 c -0.25,-1.21 0.05,-2.24 0.89,-3.1 Z"/></g>
<g><path fill="#a05d68" d="M 432.84,698.02 c 0.91,0.33 1.31,0.99 1.21,1.98 c -0.79,-0.4 -1.19,-1.06 -1.21,-1.98 Z M 434.05,700 c 0.55,0.24 0.85,0.67 0.89,1.29 c -0.55,-0.25 -0.85,-0.68 -0.89,-1.29 Z"/></g>
<g><path fill="#c0707e" d="M 431.96,718.9 c 0.74,0.57 1.11,1.32 1.13,2.26 c -0.83,-0.51 -1.2,-1.27 -1.13,-2.26 Z"/></g>
<g><path fill="#b94e51" d="M 474.09,693.03 c -0.48,0.77 -1.18,1.1 -2.12,0.99 c 0.49,-0.74 1.2,-1.07 2.12,-0.99 Z"/></g>
<g><path fill="#b99199" d="M 597.9,710.95 c -0.06,0.55 -0.35,0.92 -0.86,1.1 c 0.02,-0.58 0.31,-0.95 0.86,-1.1 Z M 597.04,712.05 c -0.18,0.47 -0.5,0.83 -0.94,1.07 c 0.03,-0.62 0.34,-0.97 0.94,-1.07 Z"/></g>
<g><path fill="#ae4a55" d="M 595.25,714.24 c -0.32,0.37 -0.64,0.73 -0.96,1.09 c -0.04,-0.69 0.28,-1.05 0.96,-1.09 Z"/></g>
<g><path fill="#779f88" d="M 389.07,296.03 c -0.24,0.49 -0.64,0.76 -1.19,0.81 c 0.3,-0.4 0.7,-0.67 1.19,-0.81 Z"/></g>
<g><path fill="#c696a6" d="M 604.15,681.82 c -0.21,0.58 -0.58,1.03 -1.11,1.34 c 0.12,-0.66 0.49,-1.1 1.11,-1.34 Z"/></g>
<g><path fill="#c89ea3" d="M 558.98,680.29 c 0.51,-0.06 0.91,0.11 1.21,0.51 c -0.52,0.08 -0.92,-0.09 -1.21,-0.51 Z"/></g>
<g><path fill="#cd8898" d="M 564.13,724.99 c -0.16,0.56 -0.54,0.88 -1.13,0.94 c 0.18,-0.54 0.56,-0.86 1.13,-0.94 Z"/></g>
<g><path fill="#3b8360" d="M 477.53,102.82 c 0.1,0.55 -0.12,0.89 -0.65,1.03 c 0.21,-0.34 0.43,-0.69 0.65,-1.03 Z"/></g>
<g><path fill="#4c8d6a" d="M 270.85,729.16 c 0.57,0.15 0.87,0.51 0.89,1.11 c -0.33,-0.35 -0.62,-0.71 -0.89,-1.11 Z"/></g>
<g><path fill="#8f9a8c" d="M 704.98,585.05 c 0.43,0.03 0.87,0.05 1.3,0.08 c -0.54,0.77 -0.97,0.74 -1.3,-0.08 Z"/></g>
<g><path fill="#8da78d" d="M 262.71,526.93 c 0.12,0.47 -0.02,0.83 -0.42,1.08 c -0.12,-0.47 0.02,-0.83 0.42,-1.08 Z"/></g>
<g><path fill="#468a68" d="M 279.8,740.18 c 0.6,0.13 0.9,0.51 0.91,1.13 c -0.32,-0.37 -0.62,-0.74 -0.91,-1.13 Z"/></g>
<g><path fill="#ba8597" d="M 602.11,684.94 c -0.15,0.63 -0.53,1.07 -1.14,1.31 c 0.09,-0.7 0.47,-1.14 1.14,-1.31 Z"/></g>
<g><path fill="#50896c" d="M 313.68,773.29 c 0.61,-0.01 1,0.27 1.16,0.85 c -0.41,-0.25 -0.8,-0.53 -1.16,-0.85 Z"/></g>
<g><path fill="#3e886c" d="M 344.79,795.55 c 0.56,-0.17 0.91,0.03 1.04,0.59 c -0.35,-0.19 -0.7,-0.39 -1.04,-0.59 Z"/></g>
<g><path fill="#cb8d95" d="M 434.97,684.84 c -0.06,0.68 -0.4,1.15 -1.02,1.41 c 0.12,-0.63 0.46,-1.1 1.02,-1.41 Z"/></g>
<g><path fill="#408771" d="M 351.78,799.63 c 0.55,-0.23 0.9,-0.07 1.05,0.5 c -0.35,-0.17 -0.7,-0.33 -1.05,-0.5 Z"/></g>
<g><path fill="#347c60" d="M 362.75,805.67 c 0.56,-0.23 0.93,-0.06 1.11,0.5 c -0.37,-0.17 -0.74,-0.34 -1.11,-0.5 Z"/></g>
<g><path fill="#7ca386" d="M 617.98,500.08 c -0.25,0.45 -0.63,0.73 -1.14,0.84 c 0.25,-0.47 0.63,-0.75 1.14,-0.84 Z"/></g>
<g><path fill="#9cae9e" d="M 450.1,496.89 c -0.19,0.58 -0.57,0.93 -1.17,1.07 c 0.21,-0.56 0.59,-0.92 1.17,-1.07 Z"/></g>
<g><path fill="#4e8d67" d="M 355.23,494.75 c 0.34,0.34 0.67,0.68 1,1.03 c -0.6,-0.08 -0.94,-0.42 -1,-1.03 Z"/></g>
<g><path fill="#92aa94" d="M 759.25,489.92 c 0.43,0.25 0.61,0.63 0.53,1.14 c -0.41,-0.27 -0.59,-0.65 -0.53,-1.14 Z"/></g>
<g><path fill="#95ada2" d="M 242.77,436.87 c 0.02,0.53 -0.21,0.9 -0.68,1.11 c 0.07,-0.47 0.3,-0.84 0.68,-1.11 Z"/></g>
<g><path fill="#99aaa2" d="M 244.8,432.91 c 0.03,0.51 -0.17,0.88 -0.6,1.13 c -0.04,-0.52 0.16,-0.9 0.6,-1.13 Z"/></g>
<g><path fill="#85a897" d="M 246.74,429.08 c 0.01,0.42 -0.16,0.73 -0.53,0.93 c 0.04,-0.39 0.22,-0.7 0.53,-0.93 Z"/></g>
<g><path fill="#87a597" d="M 248.72,424.94 c 0.03,0.5 -0.18,0.84 -0.63,1.02 c 0.07,-0.43 0.28,-0.77 0.63,-1.02 Z"/></g>
<g><path fill="#a1b4ab" d="M 300.06,354.96 c -0.24,0.5 -0.61,0.86 -1.11,1.08 c 0.26,-0.47 0.63,-0.83 1.11,-1.08 Z"/></g>
<g><path fill="#cf8fa0" d="M 622.94,681.76 c -0.06,0.63 -0.36,1.1 -0.9,1.41 c 0.1,-0.6 0.4,-1.07 0.9,-1.41 Z"/></g>
<g><path fill="#06883e" stroke="#06883e" stroke-width="0.5" d="M 500.84,66.85 c 0.82,0.21 1.65,0.26 2.49,0.17 c 0.31,13.33 0.84,26.66 1.57,39.98 c -4.36,-1.12 0.37,-13.34 -3.4,-14.71 c -0.47,1.63 0.3,2.04 -1.11,3.44 c 0.21,2.4 -0.24,4.66 -1.35,6.8 c 0.2,1.73 0,3.4 -0.61,5.02 c 0.22,1.62 0.14,3.22 -0.23,4.8 c 0.33,0.68 0.58,1.38 0.75,2.11 c -0.27,1.14 -0.79,2.15 -1.56,3.05 c 1.88,1.08 1.91,2.24 0.11,3.49 c -1.36,2.67 2.01,2.27 0.92,4.41 c 1.14,0.91 2.09,1.99 2.87,3.24 c 1.28,2.89 -4.2,-0.02 -3.09,4.61 c 0.51,0.5 1.04,0.99 1.59,1.45 c 0.14,1.1 0.36,2.19 0.67,3.26 c 0.41,1.44 2.46,2.02 1.12,3.45 c 0.5,0.57 0.74,1.24 0.75,1.99 c -0.43,3.37 -0.51,6.74 -0.27,10.12 c 0.23,0.63 0.5,1.24 0.81,1.83 c -1.61,3.56 -1.73,5.25 -0.57,8.83 c 2.93,1.99 0.7,4.79 2.25,6.46 c 0.4,-0.62 0.56,-1.32 0.46,-2.09 c 0,-7.36 -0.04,-14.71 -0.1,-22.07 c 0.08,-0.75 0.48,-1.26 1.17,-1.53 c 3.11,72.17 5.31,144.39 9.12,216.54 c 3.44,42.6 5.85,85.02 12.15,127.31 c -0.25,0.85 -0.26,1.7 -0.04,2.55 c 0.51,1.24 0.82,2.55 0.92,3.92 c 0.16,0.27 0.38,0.46 0.68,0.57 c 28.21,20.01 57.99,25.79 87.93,5.07 c 0.51,-0.11 0.89,-0.39 1.14,-0.84 c 4.79,-3.68 8.73,-8.11 11.8,-13.31 c 0.13,0.38 0.39,0.59 0.77,0.63 c 1.07,-1.39 2.36,-2.55 3.86,-3.48 c 1.76,-2.26 3.4,-4.6 4.93,-7.03 c 0.08,-1.76 0.37,-3.51 0.86,-5.26 c 0.87,-0.42 1.74,-0.85 2.6,-1.3 c 0.22,-1.28 0.49,-2.55 0.8,-3.81 c -1.42,-1.4 -1.49,-0.79 0.05,-1.96 c -0.87,-2.13 -1.86,-3.67 -1.1,-6.04 c -0.36,-0.36 -0.76,-0.7 -1.19,-1 c 0.46,-1.7 0.24,-7.68 0.26,-9.98 c -0.35,-1.6 -0.65,-3.21 -0.9,-4.81 c -1.31,-0.52 -2.33,-0.1 -2.13,-2.22 c 0.27,-0.7 0.68,-1.31 1.23,-1.82 c -2.28,-5.57 -0.81,-12.1 -3.79,-17.2 c -1.41,-2.76 -5.78,-19.23 -7.62,-20.03 c -0.86,0.19 -1.71,0.39 -2.56,0.61 c -14.91,-38.4 -34.55,-78.02 -57.69,-112.06 c 0.82,0.19 1.43,-0.09 1.82,-0.83 c 18.68,4.47 34.49,12.28 51.56,20.77 c 56.23,32.26 94.73,77.71 122.15,135.98 c 4.9,13.02 12.97,30.88 15.56,43.99 c -0.06,0.49 0.12,0.87 0.53,1.14 c 2.73,9.51 5.16,19.06 6.56,28.87 c -0.37,0.89 -0.22,1.65 0.46,2.27 c 12.12,74.18 -10.33,144.63 -54.57,204.08 c -0.77,-0.06 -1.49,-0.29 -2.15,-0.68 c -3.05,4.72 -5.75,8.31 -9.82,12.02 c -4.77,1.67 -10.03,5.66 -9.64,11.33 c 0.07,0.89 0.58,1.31 1.55,1.27 c -40.17,43.65 -88.4,70.09 -146.09,83.11 c -2.56,0.07 -5.64,-1.4 -7.24,1.42 c -5.94,-0.63 -12.36,2.06 -18.38,2.45 c -42.79,2.17 -79.42,-0.99 -119.92,-15.31 c -12.78,-4.46 -24.61,-9.45 -36.68,-15.72 c -0.18,-0.56 -0.55,-0.73 -1.11,-0.5 c -3.36,-1.75 -6.66,-3.6 -9.92,-5.54 c -0.15,-0.57 -0.5,-0.73 -1.05,-0.5 c -1.98,-1.17 -3.97,-2.33 -5.95,-3.49 c -0.13,-0.56 -0.48,-0.76 -1.04,-0.59 c -10.4,-6.57 -20.3,-13.79 -29.95,-21.41 c -0.16,-0.58 -0.55,-0.86 -1.16,-0.85 c -11.61,-10.02 -22.6,-20.68 -32.97,-31.98 c -0.01,-0.62 -0.31,-1 -0.91,-1.13 c -2.71,-3.28 -5.4,-6.59 -8.06,-9.91 c -0.02,-0.6 -0.32,-0.96 -0.89,-1.11 c -13.68,-17.67 -24.41,-35.07 -34.32,-55.18 c -19.9,-42.68 -30.39,-94.45 -23.21,-141.31 c 3.25,-24.48 9.75,-45.85 17.86,-69.02 c 3.14,-8.22 7.61,-17.5 10.91,-25.67 c 0.47,-0.21 0.7,-0.58 0.68,-1.11 c 0.54,-0.91 1.02,-1.85 1.43,-2.83 c 0.43,-0.25 0.63,-0.62 0.6,-1.13 c 0.46,-0.97 0.93,-1.94 1.41,-2.9 c 0.37,-0.2 0.54,-0.51 0.53,-0.93 c 0.43,-1.05 0.88,-2.09 1.35,-3.12 c 0.45,-0.18 0.66,-0.52 0.63,-1.02 c 14.05,-25.72 29.69,-47.88 50.23,-68.9 c 0.5,-0.22 0.87,-0.58 1.11,-1.08 c 22.97,-22.76 57.55,-47.11 87.82,-58.12 c 0.55,-0.05 0.95,-0.32 1.19,-0.81 c 6.75,-2.63 13.61,-4.91 20.59,-6.84 c 0.92,-0.38 2.94,-0.53 2.17,1.14 c -19.53,29.23 -36.67,58.39 -50.37,90.85 c -1.53,-2.45 -0.76,0.98 -2.62,1.14 c -1,1.71 0.25,1.82 -2.66,2.39 c -2.8,2.69 2.7,2.83 0.42,4.3 c -2.15,0.06 -3.36,-0.36 -4.13,2.03 c 0.17,1.07 0.28,2.15 0.33,3.24 c -1.68,2.26 -1.57,3.33 -1.92,6.02 c -0.54,0.16 -1.1,0.27 -1.66,0.35 c 0.14,0.79 0.16,1.59 0.05,2.38 c -1.34,2.36 -2.35,4.84 -3.06,7.45 c 0.33,2.06 0.05,4.05 -0.82,5.96 c 0.44,0.39 0.87,0.78 1.3,1.18 c 0.51,2.5 0.12,4.83 -1.19,7.02 c -0.4,-0.73 -0.73,-1.5 -0.98,-2.3 c -1.1,2.05 -3.42,1.47 -1.14,3.63 c 0.74,1.27 -1.24,5.44 -2.06,6.6 c 0.76,0.55 1.43,1.16 2.04,1.86 c -0.96,12.95 -2.07,24.23 -0.44,37.18 c 0.15,1.29 0.86,1.76 2.12,1.4 c 2.14,8.8 4.55,14.6 10.19,21.74 c 0.06,0.61 0.4,0.95 1,1.03 c 25.51,23.5 65.52,22.43 92.7,2.18 c 0.6,-0.14 0.98,-0.49 1.17,-1.07 c 3.83,-1.79 2.63,-16.86 4.07,-20.92 c 0.99,1.05 1.59,0.91 1.81,-0.44 c 0.13,-4.74 -0.03,-5.18 2.69,-9.03 c -0.48,-0.37 -0.94,-0.76 -1.39,-1.17 c -0.08,-1.67 0.23,-3.27 0.94,-4.79 c -0.23,-0.28 -0.39,-0.61 -0.46,-0.97 c 0.06,-1.19 0.27,-2.32 0.63,-3.39 c 0.39,0.13 0.77,0.28 1.15,0.44 c 2.4,-5.6 2.29,-20.2 3.11,-27.25 c 0.31,-16.77 6.75,-42.26 2.4,-57.9 c 0.48,-1 1.05,-1.92 1.72,-2.75 c -2.07,-1.14 -2.06,-2.27 0.04,-3.4 c 0.06,-0.62 -0.03,-1.22 -0.27,-1.81 c 0.3,-3.62 0.39,-7.24 0.27,-10.88 c -0.31,-0.76 -0.74,-1.46 -1.3,-2.09 c 0.47,-1.05 0.92,-2.11 1.36,-3.18 c 0.34,-1.46 -0.84,-1.74 -1.31,-2.87 c 1.99,-2.81 0.66,-1.28 0,-4.04 c 1.27,-1.77 1.7,-0.84 -0.07,-2.96 c 1.02,-1.8 1.79,-0.75 0.03,-2.98 c 0.41,-0.58 0.77,-1.17 1.1,-1.76 c -1.55,-1.16 -1.55,-2.32 -0.01,-3.48 c -0.23,-0.63 -0.57,-1.22 -1.03,-1.77 c 1.96,-2.04 1.2,-1.92 -0.16,-4 c 0.52,-0.55 0.97,-1.12 1.35,-1.72 c -1.77,-0.93 -1.89,-2.02 -0.38,-3.27 c -1.34,-1.09 -1.61,-2.43 -0.84,-4.02 c 1.53,-1.69 1.68,-1.23 -0.13,-2.92 c -0.05,-0.35 -0.09,-0.69 -0.13,-1.04 c 0.59,-1.01 1.18,-2.02 1.79,-3.01 c -0.61,-0.81 -1.17,-1.66 -1.68,-2.54 c 0.56,-9.66 -1.45,-25.54 1.17,-34.47 c -3.46,-0.12 -1.6,-1.28 -0.65,-2.97 c -0.62,-1.33 -1.14,-2.69 -1.56,-4.1 c 0.92,-12.24 0.61,-24.44 0.44,-36.78 c -1.01,-5.05 0.87,-7.03 -2.15,-12.32 c 0.36,-0.95 0.79,-1.88 1.28,-2.79 c -0.72,-6.02 -1.44,-14.21 -0.51,-20.08 c -0.21,-2.67 -0.63,-5.29 -1.25,-7.87 c 0.53,-0.67 1,-1.36 1.42,-2.09 c -1.69,-2.63 -1.69,-3.99 -1.17,-7.03 c -0.02,-10.89 -2.84,-28.89 -0.89,-38.84 c -0.6,-1.82 -1.4,-2.06 -0.04,-3.66 c -0.24,-1.09 0.11,-1.95 1.05,-2.6 c 0.3,0.45 0.64,0.88 1.03,1.26 c 0.18,-0.72 0.18,-1.46 0,-2.23 c 0.21,-0.54 0.52,-1.02 0.93,-1.43 c -0.05,-3.55 1.98,-3.48 3.97,-5.58 c -0.54,-0.68 -0.81,-1.47 -0.82,-2.36 c -0.21,0 -0.42,-0.01 -0.63,-0.01 c 3.35,-5.02 6.63,-10.08 9.86,-15.18 c 0.53,-0.14 0.75,-0.48 0.65,-1.03 c 7.95,-11.87 15.72,-23.87 23.31,-35.97 Z M 347.94,554.27 c 0.15,-0.77 -0.04,-1.44 -0.59,-2 c -12.04,-7.31 -22.46,-14.72 -32.49,-24.65 c -1.4,-0.77 -2.43,-2.63 -4.11,-1.39 c -9.73,-9.95 -17.34,-21.73 -25.13,-33.21 c -2.47,-4.17 -4.88,-8.34 -7.23,-12.52 c -5.03,3.5 -13.97,38.96 -15.68,46.43 c -0.4,0.25 -0.54,0.61 -0.42,1.08 c -2.03,8.78 -3.4,16.71 -3.68,25.7 c -0.56,1.14 -0.66,2.31 -0.3,3.53 c -1.54,30.41 2.34,55.21 16.71,82.24 c 2.35,3.5 2.81,4.1 6.55,1.61 c 22.69,-16.68 45.02,-25.78 71.9,-33.2 c 14.74,-3.63 29.1,-5.53 44.06,-7.62 c 24.11,-2.04 46.83,-1.89 70.94,0.01 c 16.39,1.7 32.63,4.62 48.87,6.97 c 49.48,9.95 97.67,14.52 148.16,11.01 c 9.76,-1.54 51.34,-4.03 57.12,-9.59 c 1.44,1.56 3.98,3.56 5.26,0.61 c 1.12,-5.65 2.35,-11.87 2.96,-17.94 c -1.27,-3.44 -0.44,-2.17 0.79,-4.96 c -2.03,-4.08 3.71,-21.08 1.08,-26.6 c -1.34,-1.32 -1.99,-1.36 -1.07,-3.28 c -1,-0.85 -1.53,-1.91 -1.59,-3.19 c 0.75,-0.56 1.57,-0.98 2.47,-1.28 c 1.26,-2.79 -2.47,-3.36 -2.38,-5.54 c 0.42,-4.38 1.24,-8.66 0.21,-13.03 c 0.41,-0.65 0.81,-1.3 1.21,-1.95 c -0.6,-1.25 -1.3,-2.43 -2.12,-3.55 c 0.4,-6.94 -2.9,-17.84 -3.63,-25.3 c -0.99,-0.96 -2.05,-1.85 -3.18,-2.68 c 0.03,-0.9 0,-1.79 -0.1,-2.65 c -0.4,0.19 -0.81,0.36 -1.23,0.5 c -0.35,-0.42 -0.64,-0.87 -0.88,-1.37 c -0.49,0.48 -0.89,1.03 -1.21,1.64 c -0.37,-0.17 -0.75,-0.27 -1.15,-0.32 c -33.05,20.75 -14.08,45.73 -10.33,75.86 c 0.58,1.49 -0.54,11.01 -1.45,11.49 c -0.43,-0.03 -0.87,-0.05 -1.3,-0.08 c -0.86,-0.04 -7.99,-9.06 -9.27,-10.39 c -12.53,-17.95 -19.49,-34.65 -21.99,-56.56 c 0.3,-4.39 0.37,-8.78 0.21,-13.18 c 1.76,-18.19 7.06,-34.36 14.36,-51.01 c 2.93,-6.51 5.93,-12.98 8.98,-19.4 c -1.2,-1.96 -2.19,-4.03 -2.95,-6.22 c -5.92,-9.44 -10.56,-14.99 -20.67,-20.47 c -1.02,-0.65 -2.86,-1.38 -2.93,0.6 c -0.05,44.91 -3.42,86.41 -27.32,125.61 c -27.27,42.5 -75.8,33.05 -114.35,13.35 c -12.74,-6.59 -24.86,-14.18 -36.34,-22.77 c -2.53,-1.68 -4.02,-2.18 -6.7,-0.27 c -40.19,30.11 -88.41,53.82 -138.07,29.93 Z M 304.36,699 c 5.16,7.8 21.46,24.16 29.24,30.89 c 41.53,35.09 80.44,55.13 134.42,64.56 c 52.03,7.45 98.88,-4.26 143.98,-30.09 c 3.43,-2.71 7.08,-5.07 10.93,-7.1 c 4.62,-3.7 9.37,-7.23 14.24,-10.59 c 19.61,-16.35 35.79,-32.21 50.59,-53.31 c 10.92,-15.93 19.77,-31.06 27.33,-48.83 c 1.28,-4.11 4.09,-8.6 4.52,-12.79 c -0.46,-0.47 -1,-0.57 -1.63,-0.31 c -57.14,30.16 -131.32,32.05 -194.49,29.62 c -59.97,-4.15 -154.9,-26.83 -204.35,16.57 c -5.57,4.96 -12.89,14.22 -14.78,21.38 Z"/></g>
<g><path fill="#a9bda4" d="M 546.08,833.33 c -0.26,1.07 -2.84,0.33 -3.61,0.59 c -1.19,0.38 -2.4,0.65 -3.63,0.83 c 1.6,-2.82 4.68,-1.35 7.24,-1.42 Z"/></g>
<g><path fill="#72966f" d="M 258.61,553.71 c 0.55,1.27 0.45,2.45 -0.3,3.53 c -0.36,-1.22 -0.26,-2.39 0.3,-3.53 Z"/></g>
<g><path fill="#91ab8d" d="M 766.34,519.93 c 0.56,0.64 0.71,1.4 0.46,2.27 c -0.68,-0.62 -0.83,-1.38 -0.46,-2.27 Z"/></g>
<g><path fill="#4a8562" d="M 569.98,289.18 c -0.39,0.74 -1,1.02 -1.82,0.83 c -0.25,-1.11 1.15,-1.1 1.82,-0.83 Z"/></g>
<g><path fill="#3d3c3b" stroke="#3d3c3b" stroke-width="0.5" d="M 183.76,577.41 c 1.34,0.66 2.73,1.05 4.17,1.18 c 1.04,1.43 -0.42,1.93 -1.26,2.71 c -2.92,-0.37 -5.64,0.18 -8.17,1.65 c -0.75,1.59 0.09,8.79 -0.08,11.01 c -0.26,1.74 -0.7,3.43 -1.29,5.07 c -2.56,-2.86 -2.66,-9.67 -3.42,-13.42 c -0.22,-5.01 -7.91,-2.04 -11.04,-3.21 c -0.6,-0.38 -1.09,-0.86 -1.5,-1.44 c 1.11,-1.3 2.55,-1.95 4.3,-1.97 c 6.09,-0.68 12.18,-1.21 18.29,-1.58 Z M 791.61,593 c 0.43,-6.24 1.2,-13.24 8.9,-13.57 c 0.09,0.93 0.01,1.84 -0.26,2.73 c -3.84,4 -7.21,8.83 -3.13,14.08 c 8.46,4.85 5.07,-21.56 19.84,-16.68 c 12,6.87 2.15,28.48 -5.13,22.61 c -0.22,0.11 -0.22,0.24 0.03,0.4 c 0.18,-0.85 0.43,-1.68 0.75,-2.51 c 6.78,-3.25 8.43,-11.97 2.8,-16.93 c -4.97,-2.91 -7.37,11.95 -9.42,14.3 c -4.26,6.6 -13.78,3.43 -14.38,-4.43 Z M 741.56,726.24 c 2.78,-5.49 10.36,6.14 12.42,4.16 c 0.26,-0.6 0.36,-1.22 0.28,-1.87 c 0.66,-5.54 -5.41,-14.91 -1.44,-19.28 c 0.63,-0.72 3,-3.46 3.12,-0.76 c 1.09,4.27 -0.1,15.82 5.63,16.82 c 1.57,0.03 17.22,-0.57 14.34,2.9 c -3.4,4.92 -13.94,0.11 -16.27,2.75 c -0.02,5.38 3.52,7.46 6.05,11.66 c 0.17,1.86 -0.28,2.4 -2.17,2.22 c -4.37,-2.04 -21.33,-14.39 -21.96,-18.6 Z M 241.42,767.1 c -0.03,3.54 6.78,8.92 8.77,11.98 c 2.91,3.02 21.21,-14.72 28.39,-9.15 c 0.87,4.47 -7.41,20.92 -8.98,26.25 c -0.56,1.7 -1.47,3.18 -2.72,4.45 c -0.84,-0.88 -1.35,-1.91 -1.53,-3.09 c 2.26,-7.38 1.15,-12.58 -6.9,-15.08 c -2.47,0.13 -6.74,3.18 -8.9,1.3 c -5.13,-4.94 -10.02,-10.11 -14.68,-15.52 c 2.17,-3.19 3.57,-2.98 6.55,-1.14 Z M 264.14,779.02 c 0.63,2.25 1.93,3.99 3.92,5.22 c 1.84,1.46 4.09,-7.96 4.31,-9.36 c -3.38,0.14 -6.12,1.52 -8.23,4.14 Z M 607.41,836.94 c -0.13,-0.93 0.13,-1.71 0.8,-2.35 c 3.63,-1.74 7.31,-3.38 11.03,-4.92 c 13.85,-4.38 25.63,18.89 11.04,26.98 c -2.57,1.36 -7.81,4.42 -10.57,4.33 c -3.46,-2.39 -10.21,-19.35 -12.3,-24.04 Z M 612.98,836.99 c 0.25,1.74 0.73,3.42 1.45,5.03 c 2.16,2.68 4.94,14.25 9.31,13.22 c 7.27,-1.71 8.6,-6.73 7.78,-13.44 c -1.56,-9.31 -14.22,-10.63 -18.54,-4.81 Z"/></g>
<g><path fill="#078036" d="M 467.02,119.03 c 0.21,0 0.42,0.01 0.63,0.01 c 0.01,0.89 0.28,1.68 0.82,2.36 c -1.99,2.1 -4.02,2.03 -3.97,5.58 c -0.41,0.41 -0.72,0.89 -0.93,1.43 c 0.18,0.77 0.18,1.51 0,2.23 c -0.39,-0.38 -0.73,-0.81 -1.03,-1.26 c -0.94,0.65 -1.29,1.51 -1.05,2.6 c -1.36,1.6 -0.56,1.84 0.04,3.66 c -1.95,9.95 0.87,27.95 0.89,38.84 c -0.52,3.04 -0.52,4.4 1.17,7.03 c -0.42,0.73 -0.89,1.42 -1.42,2.09 c 0.62,2.58 1.04,5.2 1.25,7.87 c -0.93,5.87 -0.21,14.06 0.51,20.08 c -0.49,0.91 -0.92,1.84 -1.28,2.79 c 3.02,5.29 1.14,7.27 2.15,12.32 c 0.17,12.34 0.48,24.54 -0.44,36.78 c 0.42,1.41 0.94,2.77 1.56,4.1 c -0.95,1.69 -2.81,2.85 0.65,2.97 c -2.62,8.93 -0.61,24.81 -1.17,34.47 c 0.51,0.88 1.07,1.73 1.68,2.54 c -0.61,0.99 -1.2,2 -1.79,3.01 c 0.04,0.35 0.08,0.69 0.13,1.04 c 1.81,1.69 1.66,1.23 0.13,2.92 c -0.77,1.59 -0.5,2.93 0.84,4.02 c -1.51,1.25 -1.39,2.34 0.38,3.27 c -0.38,0.6 -0.83,1.17 -1.35,1.72 c 1.36,2.08 2.12,1.96 0.16,4 c 0.46,0.55 0.8,1.14 1.03,1.77 c -1.54,1.16 -1.54,2.32 0.01,3.48 c -0.33,0.59 -0.69,1.18 -1.1,1.76 c 1.76,2.23 0.99,1.18 -0.03,2.98 c 1.77,2.12 1.34,1.19 0.07,2.96 c 0.66,2.76 1.99,1.23 0,4.04 c 0.47,1.13 1.65,1.41 1.31,2.87 c -0.44,1.07 -0.89,2.13 -1.36,3.18 c 0.56,0.63 0.99,1.33 1.3,2.09 c 0.12,3.64 0.03,7.26 -0.27,10.88 c 0.24,0.59 0.33,1.19 0.27,1.81 c -2.1,1.13 -2.11,2.26 -0.04,3.4 c -0.67,0.83 -1.24,1.75 -1.72,2.75 c 4.35,15.64 -2.09,41.13 -2.4,57.9 c -0.82,7.05 -0.71,21.65 -3.11,27.25 c -0.38,-0.16 -0.76,-0.31 -1.15,-0.44 c -0.36,1.07 -0.57,2.2 -0.63,3.39 c 0.07,0.36 0.23,0.69 0.46,0.97 c -0.71,1.52 -1.02,3.12 -0.94,4.79 c 0.45,0.41 0.91,0.8 1.39,1.17 c -2.72,3.85 -2.56,4.29 -2.69,9.03 c -0.22,1.35 -0.82,1.49 -1.81,0.44 c 9.79,-77.37 12.21,-155.57 7.13,-233.47 c 0.31,-35.17 -4.61,-69.89 -4.48,-105.01 c 0.09,-5.14 7.95,-13.42 10.2,-18.46 Z"/></g>
<g><path fill="#3f3a39" stroke="#3f3a39" stroke-width="0.5" d="M 779.04,653.98 c 1.34,-5.03 2.38,-18.57 8.97,-19.39 c 13.42,-1.36 10.6,10.61 8.56,19.09 c -0.87,3.97 12.29,2.1 11.01,6.66 c -0.3,1.48 -1.17,2.14 -2.61,1.99 c -7.62,-2.2 -19.21,-4.89 -25.93,-8.35 Z M 783.37,650.88 c -0.02,1.05 1.78,1.26 2.5,1.51 c 2.1,0.35 4.2,0.44 6.3,0.25 c 1.76,-3.11 2.7,-7.26 2.31,-10.8 c -5.33,-8.76 -10.81,4.27 -11.11,9.04 Z M 180.65,675 c 0.25,-12.23 13.62,-11.38 22.1,-15.99 c 2.34,-1.03 4.5,1.14 3.24,3.4 c -6.19,3.82 -18.84,4.08 -20.8,12.22 c -0.84,21.17 23.7,0.4 27.41,3.32 c 0.75,0.81 1.93,2.82 0.31,3.43 c -8.17,2.97 -17.83,11.06 -26.51,5.64 c -3.93,-3.02 -5.85,-7.02 -5.75,-12.02 Z M 719.57,755.99 c 0.54,-1.13 1.12,-3.06 2.79,-2.64 c 2.87,2.34 5.89,4.44 9.08,6.28 c 1.17,-0.15 6.07,-6.16 7.15,-7.39 c 1.08,-0.9 1.3,-1.95 0.64,-3.14 c -2.85,-2.08 -5.54,-4.32 -8.09,-6.71 c -0.41,-2 1.75,-4.17 3.3,-5.09 c 6.21,7.32 14.83,12.21 21.62,19.11 c 1.39,1.15 -0.64,3.67 -2.36,3.32 c -3.23,-2.01 -6.38,-4.15 -9.45,-6.41 c -0.72,-0.14 -1.32,0.08 -1.79,0.65 c -2.44,2.9 -4.76,5.89 -6.95,8.97 c -0.05,2.88 13.84,9.83 6.87,11.69 c -2.78,-0.59 -22.09,-16.35 -22.81,-18.64 Z"/></g>
<g><path fill="#403e3e" stroke="#403e3e" stroke-width="0.5" d="M 358.04,856 c 2.9,-8.53 6.07,-16.88 10.85,-24.52 c 1.23,-0.27 2.21,0.13 2.92,1.18 c -0.92,2.66 -1.81,5.35 -2.66,8.07 c -0.76,1.55 -0.43,2.77 0.98,3.66 c 3.21,1.48 6.41,2.98 9.6,4.49 c 0.84,0.36 1.49,0.16 1.95,-0.59 c 0.74,-3.39 1.85,-6.64 3.3,-9.76 c 7.08,-1.75 -0.16,9.56 -0.56,12.29 c -1.54,5.13 -2.35,10.08 -5.63,14.46 c -6.09,2.37 -0.27,-9.82 0.02,-11.88 c 0.08,-0.5 -0.08,-0.88 -0.51,-1.14 c -3.84,-1.62 -7.69,-3.2 -11.55,-4.76 c -0.85,0.8 -1.5,1.76 -1.94,2.88 c -1.05,2.6 -2.19,5.15 -3.42,7.64 c -1.99,0.7 -3.11,0.03 -3.35,-2.02 Z M 383.59,867.13 c 2.07,-8.88 4.95,-17.41 8.06,-25.98 c 0.63,-1.6 5.14,-0.16 5.34,1.35 c 0.57,7.32 0.91,14.66 1.03,22.01 c 0.18,1.29 0.76,1.53 1.74,0.72 c 3.9,-5.98 8,-11.83 12.28,-17.54 c 1.29,-0.74 2.62,-0.75 3.97,-0.04 c 2.36,0.71 -1.74,10.34 -1.7,12.29 c -1.73,2.59 -3.02,19.22 -7.99,15.24 c -0.93,-1.48 4.1,-16 4.49,-18.75 c 0.12,-0.47 0.03,-0.88 -0.29,-1.22 c -3.84,5.37 -7.74,10.73 -11.68,16.07 c -1.23,1.01 -2.49,1.05 -3.8,0.12 c -1.68,-2.51 -1.18,-16.17 -1.13,-19.83 c -0.65,-0.94 -1.64,0.28 -1.79,0.98 c -1.62,5.28 -3.44,10.49 -5.46,15.63 c -1.39,0.82 -2.41,0.47 -3.07,-1.05 Z"/></g>
<g><path fill="#068739" stroke="#068739" stroke-width="0.5" d="M 722.62,608.67 c 3.65,-4.58 6.85,-40.11 6.61,-47.17 c -0.87,-21.1 -3.46,-42.59 -9.41,-62.89 c -0.1,-0.32 -0.3,-0.48 -0.61,-0.51 c 0.32,-0.61 0.72,-1.16 1.21,-1.64 c 0.24,0.5 0.53,0.95 0.88,1.37 c 0.42,-0.14 0.83,-0.31 1.23,-0.5 c 0.1,0.86 0.13,1.75 0.1,2.65 c 1.13,0.83 2.19,1.72 3.18,2.68 c 0.73,7.46 4.03,18.36 3.63,25.3 c 0.82,1.12 1.52,2.3 2.12,3.55 c -0.4,0.65 -0.8,1.3 -1.21,1.95 c 1.03,4.37 0.21,8.65 -0.21,13.03 c -0.09,2.18 3.64,2.75 2.38,5.54 c -0.9,0.3 -1.72,0.72 -2.47,1.28 c 0.06,1.28 0.59,2.34 1.59,3.19 c -0.92,1.92 -0.27,1.96 1.07,3.28 c 2.63,5.52 -3.11,22.52 -1.08,26.6 c -1.23,2.79 -2.06,1.52 -0.79,4.96 c -0.61,6.07 -1.84,12.29 -2.96,17.94 c -1.28,2.95 -3.82,0.95 -5.26,-0.61 Z"/></g>
<g><path fill="#484746" stroke="#484746" stroke-width="0.5" d="M 232.2,752.19 c -0.08,-1.39 -1.42,-1 -2.16,-1.8 c -0.22,-0.47 -0.51,-0.89 -0.86,-1.26 c 2.99,-7.96 -9.08,-16.03 0.5,-22.98 c 14.73,-7.55 19.82,17.56 11.02,16.68 c -3.02,-2.01 3.9,-16.68 -8.45,-13.13 c -5.82,2.83 7.89,13.64 -0.05,22.49 Z M 547.14,862.8 c -1.25,0.23 -1.23,1.31 -2.49,0.62 c -0.59,0.48 -1.03,1.09 -1.3,1.82 c -0.83,-1.37 -2,-5.77 -3.72,-6 c -1.43,1.16 -0.74,9.31 -2.74,11.42 c -1.21,1.31 -1.15,2.54 0.2,3.68 c -1.72,3.1 -0.78,11.37 -6.29,9.33 c -1.89,-0.91 5.65,-24.44 5.34,-28.12 c 0.62,-1.48 1.76,-2.08 3.4,-1.78 c 0.61,0.02 1.15,0.21 1.64,0.57 c 1.89,2.89 3.87,5.71 5.96,8.46 Z"/></g>
<g><path fill="#078436" stroke="#078436" stroke-width="0.5" d="M 629.78,486.77 c 3.33,-6.17 5.1,-11.91 6.94,-18.43 c 2.05,-11.73 0.12,-32.4 -3.92,-43.17 c 0.36,-1.26 0.11,-2.33 -0.77,-3.22 c -1.26,-6.02 -4.59,-13.85 -6.18,-19.88 c 0.85,-0.22 1.7,-0.42 2.56,-0.61 c 1.84,0.8 6.21,17.27 7.62,20.03 c 2.98,5.1 1.51,11.63 3.79,17.2 c -0.55,0.51 -0.96,1.12 -1.23,1.82 c -0.2,2.12 0.82,1.7 2.13,2.22 c 0.25,1.6 0.55,3.21 0.9,4.81 c -0.02,2.3 0.2,8.28 -0.26,9.98 c 0.43,0.3 0.83,0.64 1.19,1 c -0.76,2.37 0.23,3.91 1.1,6.04 c -1.54,1.17 -1.47,0.56 -0.05,1.96 c -0.31,1.26 -0.58,2.53 -0.8,3.81 c -0.86,0.45 -1.73,0.88 -2.6,1.3 c -0.49,1.75 -0.78,3.5 -0.86,5.26 c -1.53,2.43 -3.17,4.77 -4.93,7.03 c -1.5,0.93 -2.79,2.09 -3.86,3.48 c -0.38,-0.04 -0.64,-0.25 -0.77,-0.63 Z"/></g>
<g><path fill="#383636" stroke="#383636" stroke-width="0.5" d="M 229.18,749.13 c 0.35,0.37 0.64,0.79 0.86,1.26 c 0.74,0.8 2.08,0.41 2.16,1.8 c -8.84,7.54 -21.31,-7.79 -14.69,-17.2 c 4.43,-3.54 2.14,5.98 2.35,7.47 c 0.01,4.89 4.74,7.93 9.32,6.67 Z M 428.9,878.01 c 1.13,-8.48 2.22,-16.96 3.29,-25.44 c 0.33,-2.38 4.79,-0.82 4.4,0.83 c -0.51,6.74 -3.15,16.22 -2.95,22.62 c 1.86,3.26 16.08,-0.24 13.15,6.27 c -1.28,1.64 -14.85,-1.66 -17.27,-2.32 c -0.48,-0.56 -0.69,-1.22 -0.62,-1.96 Z"/></g>
<g><path fill="#088241" d="M 361.46,381.18 c -4.27,10.62 -8.05,21.4 -11.35,32.36 c -1.83,6.95 -3.47,13.95 -4.89,20.99 c -1.63,12.38 -2.59,26.17 -0.18,38.48 c -1.26,0.36 -1.97,-0.11 -2.12,-1.4 c -1.63,-12.95 -0.52,-24.23 0.44,-37.18 c -0.61,-0.7 -1.28,-1.31 -2.04,-1.86 c 0.82,-1.16 2.8,-5.33 2.06,-6.6 c -2.28,-2.16 0.04,-1.58 1.14,-3.63 c 0.25,0.8 0.58,1.57 0.98,2.3 c 1.31,-2.19 1.7,-4.52 1.19,-7.02 c -0.43,-0.4 -0.86,-0.79 -1.3,-1.18 c 0.87,-1.91 1.15,-3.9 0.82,-5.96 c 0.71,-2.61 1.72,-5.09 3.06,-7.45 c 0.11,-0.79 0.09,-1.59 -0.05,-2.38 c 0.56,-0.08 1.12,-0.19 1.66,-0.35 c 0.35,-2.69 0.24,-3.76 1.92,-6.02 c -0.05,-1.09 -0.16,-2.17 -0.33,-3.24 c 0.77,-2.39 1.98,-1.97 4.13,-2.03 c 2.28,-1.47 -3.22,-1.61 -0.42,-4.3 c 2.91,-0.57 1.66,-0.68 2.66,-2.39 c 1.86,-0.16 1.09,-3.59 2.62,-1.14 Z"/></g>
<g><path fill="#514c4a" stroke="#514c4a" stroke-width="0.5" d="M 793.8,675.97 c 2.94,0.97 1.52,4.01 3.36,4.47 c -5.78,0.35 -11.53,0.92 -17.25,1.72 c -0.38,-0.14 -0.63,-0.41 -0.75,-0.8 c 0.06,-0.96 0.29,-1.89 0.71,-2.78 c -0.14,-0.17 -0.28,-0.34 -0.42,-0.51 c -3.28,-0.19 -6.57,-0.34 -9.85,-0.46 c 3.37,-2.05 18.45,-0.73 22.97,-0.37 c 0.84,-0.04 1.25,-0.46 1.23,-1.27 Z M 229.28,761 c 0.86,-2.6 15.68,-14.63 18.75,-17.28 c 3.17,-2.72 7.15,0.64 4.2,3.02 c -6.79,4.63 -12.42,11.08 -19.13,15.88 c -1.93,1.09 -3.21,0.55 -3.82,-1.62 Z"/></g>
<g><path fill="#3d3b3c" stroke="#3d3b3c" stroke-width="0.5" d="M 414.93,875.01 c 0.62,-8.07 4.6,-17.66 7.16,-25.4 c 1.41,-1.09 3.18,0.11 2.95,1.84 c -2.57,7.94 -2.87,16.92 -6.68,24.35 c -0.97,2.19 -3.6,1.66 -3.43,-0.79 Z"/></g>
<g><path fill="#0d824e" d="M 347.94,554.27 c -13.44,-6.33 -27.02,-17.24 -37.19,-28.04 c 1.68,-1.24 2.71,0.62 4.11,1.39 c 10.03,9.93 20.45,17.34 32.49,24.65 c 0.55,0.56 0.74,1.23 0.59,2 Z"/></g>
<g><path fill="#068649" d="M 712.23,726.28 c -6.16,8.42 -12.85,16.4 -20.06,23.94 c -0.97,0.04 -1.48,-0.38 -1.55,-1.27 c -0.39,-5.67 4.87,-9.66 9.64,-11.33 c 4.07,-3.71 6.77,-7.3 9.82,-12.02 c 0.66,0.39 1.38,0.62 2.15,0.68 Z"/></g>
<g><path fill="#464747" d="M 186.67,581.3 c 0.84,-0.78 2.3,-1.28 1.26,-2.71 c -1.44,-0.13 -2.83,-0.52 -4.17,-1.18 c 1.81,-0.14 3.61,-0.15 5.41,-0.04 c 1.3,1.02 2,18.54 2.04,21.17 c -0.05,2.02 -2.19,2.32 -3.16,0.84 c -0.65,-6 -1.11,-12.03 -1.38,-18.08 Z"/></g>
<g><path fill="#2c2c2c" d="M 331.8,833.05 c 0.32,3.49 0.67,6.97 1.04,10.45 c 0.36,0.32 0.74,0.32 1.14,0 c 2.91,4 2.41,-2.56 6.28,-0.83 c -1.51,1.51 -3.13,2.86 -4.85,4.07 c -1.83,-1.12 -3.78,-2.07 -5.83,-2.84 c -1.59,-1.57 -1.4,-10.29 -1.93,-12.79 c 0.1,-0.75 0.26,-1.47 0.48,-2.15 c 0.71,0.76 1.49,0.9 2.34,0.44 c 0.45,0.96 0.06,3.22 1.33,3.65 Z"/></g>
<g><path fill="#454444" stroke="#454444" stroke-width="0.5" d="M 331.8,833.05 c -1.27,-0.43 -0.88,-2.69 -1.33,-3.65 c -0.85,0.46 -1.63,0.32 -2.34,-0.44 c -0.22,0.68 -0.38,1.4 -0.48,2.15 c -0.73,-1.73 -5.38,-9 -7.6,-6.54 c -1.75,3.18 -3.71,6.22 -5.89,9.12 c -1.8,0.42 -2.83,-0.29 -3.1,-2.15 c 4.66,-7.79 9.01,-15.77 13.04,-23.93 c 0.61,-0.5 1.29,-0.59 2.02,-0.26 c 4.11,2.56 8.26,5.05 12.45,7.47 c 7.53,5.7 3.57,15.74 -6.03,15.24 c -1.3,0.5 -0.83,1.95 -0.74,2.99 Z M 323.08,819.97 c 1.73,2.49 7.77,4.58 10.59,5.78 c 2.26,0.04 4.4,-2.81 3.24,-5.06 c -1.22,-2.5 -8.14,-9.88 -10.86,-7.03 c -1.27,1.97 -2.26,4.08 -2.97,6.31 Z"/></g>
<g><path fill="#50514e" d="M 570.03,847.67 c -0.33,1.62 -2.17,1.69 -3.31,2.5 c -0.46,0.59 -0.35,1.07 0.32,1.45 c -7.59,1.81 -8.66,6.29 -8.09,13.42 c -0.76,-0.16 -1.09,-0.64 -0.99,-1.45 c -0.08,-2.25 -0.07,-4.45 0.04,-6.6 c -0.79,1.04 -1.1,2.22 -0.93,3.55 c -0.4,1.62 -0.8,1.62 -1.19,-0.02 c -0.36,-1.04 0.28,-3.39 -1.23,-3.67 c 3.05,-6.82 8.14,-9.15 15.38,-9.18 Z"/></g>
<g><path fill="#44413f" stroke="#44413f" stroke-width="0.5" d="M 637.94,822 c -0.13,-2.12 0.86,-3.35 2.99,-3.69 c 0.45,-0.13 0.89,-0.1 1.31,0.1 c 7.75,5.8 15.27,11.88 22.56,18.24 c 2.49,2.02 -1.32,3.69 -3.09,3.19 c -2.37,-1.63 -4.8,-3.15 -7.29,-4.57 c -2.29,0.84 -4.53,1.85 -6.7,3.03 c -0.62,0.34 -1.23,0.7 -1.82,1.09 c -2.56,1.54 2.13,13.63 -4,11.21 c -2.19,-2.71 -3.65,-24 -3.96,-28.6 Z M 642.63,825.91 c 0.24,2.81 0.51,5.62 0.79,8.42 c 0.1,3.91 5.27,-1.38 6.65,-1.77 c 0.38,-0.23 0.56,-0.57 0.52,-1.02 c -2.15,-2.34 -4.33,-4.68 -6.53,-7.01 c -1.18,-0.37 -1.66,0.09 -1.43,1.38 Z M 570.03,847.67 c 3.39,0.45 6.03,2.1 7.92,4.92 c 1.65,7.29 -7.76,-1.91 -10.91,-0.97 c -0.67,-0.38 -0.78,-0.86 -0.32,-1.45 c 1.14,-0.81 2.98,-0.88 3.31,-2.5 Z"/></g>
<g><path fill="#555253" d="M 456.06,866.9 c 2.59,1.4 15.53,-0.37 14.8,3.57 c 0,3.58 -12.55,0.82 -14.52,0.42 c -1.49,-1.26 -1.59,-2.58 -0.28,-3.99 Z"/></g>
<g><path fill="#504c4a" d="M 792.24,625.28 c -1.91,0.42 -2.47,1.5 -1.68,3.24 c -0.15,0.66 -0.39,1.29 -0.71,1.88 c -1.39,-0.45 -2.66,-1.11 -3.81,-2 c -1.07,-4.56 3.18,-4.8 6.2,-3.12 Z"/></g>
<g><path fill="#3f3b3b" stroke="#3f3b3b" stroke-width="0.5" d="M 164.07,617 c 2.03,-22.29 35.71,-18.35 30.23,4.94 c -6.83,15.5 -29.09,13.29 -30.23,-4.94 Z M 789.85,630.4 c 0.32,-0.59 0.56,-1.22 0.71,-1.88 c -0.79,-1.74 -0.23,-2.82 1.68,-3.24 c 6.11,2.09 22.77,6.88 21.68,-4.8 c 0.09,-13.08 -18.65,-4.98 -23.78,-13.18 c 0.16,-3.33 17.94,0.73 20.67,1.28 c 13.24,4.16 8.08,26.73 -8.83,23.92 c -4.07,-0.51 -8.12,-1.21 -12.13,-2.1 Z M 167.98,616 c 0.88,16.73 25.53,13.88 22.59,-1.31 c -2.32,-11.7 -19.96,-9.89 -22.59,1.31 Z M 796.42,670.41 c -2.58,-1.69 -4.59,-3.18 -7.77,-3.31 c -1.07,1.25 5.52,4.16 6.56,4.96 c 2.23,1.1 3.89,2.75 4.99,4.95 c 0.06,2.44 -1.01,2.81 -3.04,3.43 c -1.84,-0.46 -0.42,-3.5 -3.36,-4.47 c -5.63,-4.04 -11.23,-8.12 -16.8,-12.23 c -1.04,-1.28 -1.05,-2.56 -0.04,-3.85 c 2.09,-1.32 22.8,7.15 26.3,8.52 c 0.35,0.58 0.71,1.11 1.08,1.6 c -2.55,1.7 -5.19,1.83 -7.92,0.4 Z M 769.6,677.61 c 3.28,0.12 6.57,0.27 9.85,0.46 c 0.14,0.17 0.28,0.34 0.42,0.51 c -0.42,0.89 -0.65,1.82 -0.71,2.78 c 0.12,0.39 0.37,0.66 0.75,0.8 c 1.44,2.87 21.12,6.24 14.37,9.65 c -3.9,0.94 -21.67,-7.31 -24.96,-9.5 c -1.33,-1.6 -1.24,-3.17 0.28,-4.7 Z M 190.47,699.92 c 0.35,0.84 0.51,-2.36 0.75,-2.26 c 4.16,-3.56 20.67,-12.06 25.84,-10.17 c 2.07,4.08 -7.39,9.66 -9.38,12.9 c -0.9,0.73 -8.59,5.23 -4.23,5.69 c 6.32,-0.87 12.66,-1.5 19.02,-1.89 c 1.43,0.25 5.42,0.69 4.46,3.07 c -1.68,2.88 -20.36,12.4 -24.66,12.85 c -2.18,-0.03 -2.59,-0.9 -1.23,-2.62 c 3.66,-2.84 8.34,-4.86 12.76,-7 c 1.47,-0.84 1.38,-1.33 -0.25,-1.45 c -2.15,0.41 -20.54,3.89 -18.31,-1.43 c 2.41,-4.47 9.27,-8.7 12.48,-13.16 c -1.36,0.08 -2.7,0.39 -4.03,0.92 c -2.7,1.24 -5.35,2.59 -7.96,4.03 c -2.43,0.38 -2.57,1.6 -5.26,0.52 Z M 521.22,856.46 c 5.56,2.3 4.47,7.12 4.21,11.99 c 3.64,5.76 6.07,13.9 -3.25,16.09 c -2.44,0.19 -11.96,2.06 -13.7,0.41 c -2.27,-6.22 -1.91,-19.78 -2.62,-26.97 c 1.64,0.24 3.26,0.15 4.86,-0.26 c 1.05,0.86 0.42,1.26 0.32,2.43 c -0.81,0.54 -1.14,1.33 -0.99,2.36 c -0.54,4.21 1.28,6.42 5.46,6.64 c 6.04,0.12 9.4,-5.98 3.34,-8.89 c 0.18,-1.11 -0.03,-2.14 -0.64,-3.08 c 1.01,-0.15 2.02,-0.39 3.01,-0.72 Z M 554.65,856.85 c 1.51,0.28 0.87,2.63 1.23,3.67 c 0.39,1.64 0.79,1.64 1.19,0.02 c -0.17,-1.33 0.14,-2.51 0.93,-3.55 c -0.11,2.15 -0.12,4.35 -0.04,6.6 c -0.1,0.81 0.23,1.29 0.99,1.45 c 2.14,12.53 20.22,10.46 19.36,0.85 c 1.49,0.29 -0.36,-3.32 2.77,-3.91 c 1.79,6 2.43,10.45 -4.13,13.42 c -14.51,6.85 -25.58,-3.66 -22.3,-18.55 Z M 547.14,862.8 c 2.92,4.91 5.66,9.91 8.22,15.01 c 0.21,0.97 0.13,1.93 -0.24,2.87 c -0.82,-0.28 -1.63,-0.6 -2.44,-0.94 c -4.59,-7.04 -6.91,-8.15 -15.59,-5.4 c -1.35,-1.14 -1.41,-2.37 -0.2,-3.68 c 2.58,0.51 5.02,0.17 7.33,-1.02 c 0.38,-1.57 0.09,-3.04 -0.87,-4.4 c 0.27,-0.73 0.71,-1.34 1.3,-1.82 c 1.26,0.69 1.24,-0.39 2.49,-0.62 Z M 510.89,875.97 c 0.43,1.76 0.01,5.89 2.66,5.95 c 4.15,0.15 10.18,-0.43 11.27,-5.39 c -1.1,-5.57 -9,-4.73 -13,-3.27 c -0.54,0.82 -0.85,1.72 -0.93,2.71 Z"/></g>
<g><path fill="#4a4745" stroke="#4a4745" stroke-width="0.5" d="M 241.42,767.1 c -2.98,-1.84 -4.38,-2.05 -6.55,1.14 c -0.48,-0.74 -0.6,-1.54 -0.37,-2.38 c 5.28,-5.92 12.15,-10.37 17.45,-16.41 c 1.16,-0.9 2.32,-1.74 3.51,-2.53 c 1.27,0.4 2.02,1.26 2.26,2.59 c -3.37,6.65 -12.7,10.72 -16.3,17.59 Z M 581.08,861.98 c -3.13,0.59 -1.28,4.2 -2.77,3.91 c -0.43,-0.6 -1.01,-0.94 -1.75,-1.01 c -2.33,0.51 -4.69,0.9 -7.06,1.15 c -1.22,-0.75 -1.63,-1.84 -1.21,-3.24 c 1.84,-0.86 3.75,-1.63 5.71,-2.31 c 1.51,-0.44 3.03,-0.82 4.57,-1.15 c 1.78,-0.34 1.96,1.46 2.51,2.65 Z"/></g>
<g><path fill="#373636" d="M 586.84,844.98 c 0.84,0.74 1.44,1.65 1.81,2.73 c 0.22,3.4 0.21,6.76 -0.03,10.09 c -2.18,-1.58 -1.11,-7.42 -2.32,-7.76 c 0.1,-1.7 0.28,-3.38 0.54,-5.06 Z"/></g>
<g><path fill="#413f3e" stroke="#413f3e" stroke-width="0.5" d="M 169.86,641.3 c 0.6,-1.56 2.48,-2.14 4.13,-2.86 c 4.3,-1.41 19.64,-7.32 23.06,-6.77 c 3.63,3.3 4.39,16.99 4.12,21.73 c -1.37,5.88 -10.02,4.79 -13.95,2.25 c -2.61,-1.28 -7.33,7.01 -10.4,7.16 c -2.79,-6.31 11.18,-9.89 5.78,-20.88 c -1.78,-2.53 -10.79,2.46 -12.74,-0.63 Z M 186.98,642 c 1.22,4.23 1.37,10.62 6.66,11.71 c 7.7,2.45 3.8,-14.11 -1.22,-15.88 c -3.24,-0.46 -5.06,0.93 -5.44,4.17 Z M 759.36,696.75 c 2.91,-5.12 22.58,-0.45 28.06,-1.33 c 1.79,0.07 3.47,0.49 5.05,1.28 c -4.41,6.85 -11.61,-0.59 -14.47,13.9 c 0.45,2.53 1.32,4.91 2.6,7.15 c 0.34,4.8 -2.61,2.56 -4.39,0.44 c -3.34,-5.52 -16.16,-15.81 -16.85,-21.44 Z M 766.94,699.98 c 1.81,1.8 5.88,9.73 8.38,4.84 c 4.7,-7.03 -2.3,-3.78 -6.86,-5.74 c -0.82,-0.17 -1.33,0.13 -1.52,0.9 Z M 708.36,768.08 c 0.43,-4.14 3.54,-2.87 6.45,-2.18 c 5.82,2.79 11.66,5.58 17.49,8.38 c 2.17,1.14 4.26,2.4 6.28,3.76 c 0.74,1.23 -1.23,1.92 -2.1,2.14 c -6.9,-1.16 -10.1,-2.85 -14.83,3.86 c -2.34,2.5 0.43,6.85 1.01,9.61 c 0.06,1.52 -1.83,2.54 -1.12,2.63 c -0.62,-0.44 -1.23,-0.93 -1.85,-1.44 c -2.82,-6.2 -10.48,-20.26 -11.33,-26.76 Z M 713.03,771.03 c 1.48,3.21 3.15,6.32 4.99,9.32 c 1.12,0.91 3.78,-2.48 4.74,-3.08 c 0.61,-1.17 0.27,-2.04 -1,-2.6 c -2.4,-1.56 -4.87,-3.01 -7.4,-4.35 c -0.69,-0.19 -1.13,0.05 -1.33,0.71 Z M 653.39,811.89 c 0.48,-0.35 0.7,-0.8 0.67,-1.37 c 1.01,0.23 1.92,0.66 2.74,1.29 c 2.25,2.42 4.3,4.95 6.17,7.57 c 2.74,-5.57 3.26,-11.92 5.2,-17.75 c 6.31,-11.54 17.8,3.66 23.82,7.85 c 0.51,0.25 1.27,1.01 1.58,0.09 c -1.6,-6.34 -5.22,-11.56 -7.17,-17.55 c -0.73,-1.83 -0.53,-6.61 2.39,-6.04 c 4.37,0.62 14.44,8.48 18.17,11.55 c 0.56,0.44 1.08,0.43 1.55,-0.02 c -3.25,-6.31 -6.19,-12.77 -8.79,-19.38 c -0.68,-1.47 0.9,-2.28 1.1,-3.6 c 1.66,-0.14 2.86,3.36 3.8,4.45 c 1.76,5.11 11,19.38 9.8,24.04 c -0.53,1.93 -4.14,0.95 -5.44,0.4 c -5.4,-3.48 -10.71,-7.05 -15.95,-10.74 c -0.32,-0.3 -0.64,-0.31 -0.96,-0.04 c -0.2,0.9 -0.13,1.78 0.21,2.65 c 1.71,6.22 7.9,14.04 6.02,20.54 c -4.52,3.77 -21.54,-15.85 -25.4,-14.34 c -1.87,2.31 -2.64,9.86 -2.73,12.89 c 1.11,3.45 12.11,6.1 15.99,8.28 c 2.04,1.63 0.52,1.44 -0.79,2.76 c -2.93,1.28 -12.95,-4.39 -17.03,-4.36 c -1.63,1.15 -1.85,5.24 -0.89,6.99 c 0.99,1.88 1.91,3.79 2.77,5.73 c -0.21,1.9 -1.14,2.63 -2.8,2.18 c -4.78,-7.07 -11.41,-16 -14.03,-24.07 Z M 275.23,807.15 c 0.74,-1.39 1.53,-2.75 2.37,-4.08 c 3.78,-5.66 7.73,-11.19 11.83,-16.59 c 0.05,-0.49 -0.12,-0.89 -0.49,-1.2 c -1.41,-1.14 -8.39,-8.03 -2.73,-7.78 c 5.75,3.23 14.56,11.17 19.8,15.83 c 5.19,6.23 -18.04,17.46 -7.19,26.33 c 1.61,1.42 3.46,2.1 5.57,2.05 c 5.07,-1.77 8.71,-11.22 12.88,-14.98 c 1.79,-1.66 1.85,-2.32 4.48,-1.5 c -0.07,-0.03 -0.14,-0.06 -0.21,-0.1 c 0.54,1.52 0.28,2.92 -0.77,4.21 c -4.36,5.08 -11.26,19.7 -19.69,15.93 c -17.3,-6.23 -6.58,-19.5 0.03,-29.13 c 0.15,-0.62 0.01,-1.17 -0.4,-1.65 c -1.09,-1.12 -5.99,-5.31 -7.44,-3.62 c -5.07,5.53 -9.96,11.22 -14.66,17.07 c -0.89,0.42 -1.82,0.52 -2.8,0.31 c -0.13,-0.39 -0.33,-0.76 -0.58,-1.1 Z M 340.26,842.67 c -3.87,-1.73 -3.37,4.83 -6.28,0.83 c 5.84,-6.13 11.83,-12.1 17.96,-17.94 c 0.93,-0.74 4.18,-2.57 5.02,-0.99 c 1.32,5.32 0.88,25.7 -1.56,30.65 c -1,1.52 -1.65,0.21 -2.18,-0.83 c -0.98,-9.45 -0.2,-10.21 -9.99,-12.94 c -1.19,-0.12 -2.18,0.29 -2.97,1.22 Z M 347.31,837.03 c 0.11,2.3 3.2,2.97 4.96,3.59 c 1.69,-3.52 1.91,-6.02 1.63,-10.05 c -1.07,-1.67 -6.6,4.67 -6.59,6.46 Z M 586.3,850.04 c 1.21,0.34 0.14,6.18 2.32,7.76 c 0.24,-3.33 0.25,-6.69 0.03,-10.09 c -0.37,-1.08 -0.97,-1.99 -1.81,-2.73 c 0.45,-3.37 3.41,-3.81 5.86,-2.01 c 2.25,3.23 18.37,19.48 16.84,22.12 c -0.66,0.09 -1.32,0.26 -1.97,0.5 c -4.04,0.64 -6.66,-11.52 -17.31,-1.89 c -0.59,2.5 -1.21,5.01 -1.85,7.51 c -0.92,1.37 -2.15,2.44 -2.81,0.12 c -1.29,-7.21 0.14,-14.09 0.7,-21.29 Z M 589.67,853 c -0.72,9.68 7.89,4.17 7.05,2.56 c 0.1,-0.33 -6.61,-11.11 -6.65,-7.99 c -0.35,1.79 -0.49,3.6 -0.4,5.43 Z M 456.06,866.9 c -1.31,1.41 -1.21,2.73 0.28,3.99 c -1.01,2.1 -1.57,4.31 -1.66,6.63 c 0.17,3.74 3.75,2.83 6.3,2.79 c -2.04,0.19 -4.08,0.53 -6.12,1.01 c -1.1,0.27 -1.76,0.95 -1.99,2.05 c -0.67,-0.01 -1.28,-0.2 -1.84,-0.57 c -1.76,-5.07 0.2,-21.33 1.48,-26.88 c 0.52,-0.67 1.21,-1 2.07,-0.99 c 5.02,0.34 10.89,-0.13 15.6,1.81 c 2.09,0.8 2.12,1.51 0.08,2.14 c -4.12,1.17 -7.24,0.12 -11.38,-0.03 c -4.85,-0.34 -3.18,5.07 -2.82,8.05 Z M 474.95,881 c 0.52,-4.74 -0.78,-20.76 1.68,-23.98 c 6.32,-3.34 10.65,17.24 11.69,21.23 c 0.21,0.45 0.56,0.63 1.04,0.54 c 2.31,-6.25 4.71,-12.49 7.21,-18.72 c 1.05,-1.87 2.64,-2.81 4.76,-2.84 c 2.51,1.93 1.48,20.31 1.32,24.2 c -0.25,1.05 -0.71,6.27 -2.82,3.68 c -1.67,-1.61 -0.55,-15.63 -0.96,-18.62 c 0.14,-1.83 -1.61,-1.58 -1.88,-0.01 c -1.45,5.74 -3.09,14.11 -7.25,18.52 c -4.16,3.82 -6.82,-14.62 -8.56,-16.71 c -0.23,-0.97 -0.8,-1.63 -1.7,-1.98 c -0.36,5 -0.62,10.03 -0.79,15.09 c -0.09,1.55 -0.64,2.88 -1.64,4.01 c -2.05,-1.14 -1.72,-2.34 -2.1,-4.41 Z"/></g>
<g><path fill="#2f2c2d" d="M 460.98,880.31 c 1.8,0.35 9.75,0.03 10.37,1.61 c 2.21,6 -15.72,0.73 -18.48,1.45 c 0.23,-1.1 0.89,-1.78 1.99,-2.05 c 2.04,-0.48 4.08,-0.82 6.12,-1.01 Z"/></g>
<g><path fill="#b82939" d="M 589.96,678.73 c 1.22,0.09 2.29,-0.42 3.1,0.78 c 0.04,4.82 0.03,9.65 -0.02,14.48 c -0.41,0.01 -0.68,-0.18 -0.83,-0.56 c -0.22,-4.29 -0.31,-8.58 -0.26,-12.87 c -0.69,-0.59 -1.35,-1.19 -1.99,-1.83 Z"/></g>
<g><path fill="#335f3d" d="M 503.33,67.02 c -0.84,0.09 -1.67,0.04 -2.49,-0.17 c 1.38,-2.41 2.25,-4.57 2.49,0.17 Z"/></g>
<g><path fill="#8a2d44" d="M 624.08,678.8 c 0.93,0.35 1.07,0.92 0.43,1.71 c -0.14,-0.57 -0.28,-1.14 -0.43,-1.71 Z"/></g>
<g><path fill="#068746" stroke="#068746" stroke-width="0.5" d="M 504.9,107 c -0.03,12.67 0.37,25.32 1.18,37.96 c -0.69,0.27 -1.09,0.78 -1.17,1.53 c 0.06,7.36 0.1,14.71 0.1,22.07 c 0.1,0.77 -0.06,1.47 -0.46,2.09 c -1.55,-1.67 0.68,-4.47 -2.25,-6.46 c -1.16,-3.58 -1.04,-5.27 0.57,-8.83 c -0.31,-0.59 -0.58,-1.2 -0.81,-1.83 c -0.24,-3.38 -0.16,-6.75 0.27,-10.12 c -0.01,-0.75 -0.25,-1.42 -0.75,-1.99 c 1.34,-1.43 -0.71,-2.01 -1.12,-3.45 c -0.31,-1.07 -0.53,-2.16 -0.67,-3.26 c -0.55,-0.46 -1.08,-0.95 -1.59,-1.45 c -1.11,-4.63 4.37,-1.72 3.09,-4.61 c -0.78,-1.25 -1.73,-2.33 -2.87,-3.24 c 1.09,-2.14 -2.28,-1.74 -0.92,-4.41 c 1.8,-1.25 1.77,-2.41 -0.11,-3.49 c 0.77,-0.9 1.29,-1.91 1.56,-3.05 c -0.17,-0.73 -0.42,-1.43 -0.75,-2.11 c 0.37,-1.58 0.45,-3.18 0.23,-4.8 c 0.61,-1.62 0.81,-3.29 0.61,-5.02 c 1.11,-2.14 1.56,-4.4 1.35,-6.8 c 1.41,-1.4 0.64,-1.81 1.11,-3.44 c 3.77,1.37 -0.96,13.59 3.4,14.71 Z"/></g>
</svg>
